<svg width="372" height="1183" viewBox="0 0 372 1183" fill="none" xmlns="http://www.w3.org/2000/svg">
<path d="M0.648438 1182.86L0.648438 -0.00012207L459.362 -0.00012207L459.362 1182.86H0.648438Z" fill="url(#paint0_linear_0_60)"/>
<path opacity="0.12" d="M174.07 -0.000610352C174.07 -0.000610352 146.932 89.7706 189.409 134.656C231.886 179.542 280.27 224.427 273.193 298.364C266.115 372.3 228.347 446.221 228.347 446.221C228.347 446.221 187.04 530.709 231.886 594.079C276.731 657.449 365.238 757.787 355.792 866.026C346.347 974.282 287.347 1070.65 287.347 1070.65C287.347 1070.65 248.408 1137.97 273.193 1182.86H133.948C133.948 1182.86 154.009 1107.61 93.8249 1038.96C33.6409 970.307 57.2408 829.058 123.332 747.204C189.423 665.35 -32.4361 570.296 15.9479 436.964C64.3319 303.632 128.055 252.138 63.1478 159.733C-1.75897 67.3278 78.4863 -0.000610352 78.4863 -0.000610352H174.07Z" fill="#572D9D" fill-opacity="0.6"/>
<path d="M457.306 82.337C457.306 82.337 415.522 88.9617 387.937 128.743C360.351 168.525 391.092 256.609 404.494 286.914C417.896 317.22 422.628 377.832 394.247 443.19C365.865 508.532 306.743 536.003 306.743 536.003C306.743 536.003 213.712 574.829 214.507 673.328C215.303 771.826 315.294 830.819 315.294 830.819C315.294 830.819 362.503 865.706 324.878 996.294C305.166 1107.1 403.712 1131.72 403.712 1131.72C403.712 1131.72 458.102 1138.35 458.102 1182.86L457.32 82.337H457.306Z" fill="#2E116B"/>
<path opacity="0.41" d="M458.769 111.674C458.769 111.674 410.939 122.849 388.561 187.273C366.172 251.696 370.24 359.074 370.24 359.074C370.24 359.074 371.254 463.874 350.393 537.743C329.531 611.612 313.25 718.99 330.043 817.771C346.837 916.551 370.742 969.816 382.956 987.859C395.17 1005.9 426.206 1067.75 434.854 1108.13C443.502 1148.5 453.687 1174.26 459.281 1182.86L458.769 111.674Z" fill="url(#paint1_linear_0_60)"/>
<path d="M459.277 223.47C459.277 223.47 413.867 274.725 397.597 354.343C381.328 433.961 375.909 515.404 368.457 550.182C361.004 584.96 352.187 659.086 360.322 746.021C368.457 832.956 382.693 888.781 402.347 940.035C422.002 991.29 421.316 1066.73 430.119 1091.44C439.665 1137.51 459.281 1182.86 459.281 1182.86L459.277 223.489V223.47Z" fill="#270D66"/>
<path d="M412.057 64.5896C412.057 64.5896 413.633 23.3492 334.06 33.8846C254.487 44.4201 203.289 98.8221 203.289 98.8221C203.289 98.8221 186.743 112.869 195.407 128.657C204.07 144.445 249.758 149.712 242.671 190.953C235.584 232.193 261.574 238.331 261.574 238.331C261.574 238.331 281.271 248.867 297.817 211.123C314.362 173.394 333.265 119.862 378.171 97.0506C378.171 97.0506 413.619 82.1332 412.043 64.5896H412.057Z" fill="#280B65" fill-opacity="0.53"/>
<path opacity="0.6" d="M306.59 -0.000610352C306.59 -0.000610352 342.169 48.2635 285.237 95.642C228.306 143.02 197.474 163.206 198.258 225.517C199.042 287.813 199.042 314.151 184.816 335.207C170.59 356.262 156.35 394.877 192.727 424.711C229.104 454.546 264.683 487.007 263.1 530.889C261.518 574.772 219.611 608.988 219.611 608.988C219.611 608.988 173.755 637.067 178.501 695.867C183.248 754.667 157.947 785.372 136.594 817.833C115.241 850.294 103.381 874.876 104.179 923.125C104.963 971.389 172.97 1069.67 191.159 1112.67C209.347 1155.67 207.751 1182.86 207.751 1182.86H72.1431C72.1431 1182.86 107.722 1039.39 67.3965 934.095C45.258 865.706 103.588 758.557 148.646 663.785C193.704 569.013 -27.4941 349.689 54.3468 204.897C54.3468 204.897 76.8758 164.091 111.278 136.447C145.667 108.804 120.772 29.8344 175.323 0.869629L306.576 -0.000610352H306.59Z" fill="url(#paint2_linear_0_60)"/>
<path opacity="0.42" d="M330.885 576.374C330.885 576.374 337.706 575.783 339.283 586.909C340.859 598.035 338.753 608.555 329.308 606.799C319.864 605.043 321.956 577.104 330.885 576.374Z" fill="#5B249D"/>
<path d="M211.9 326.565C211.9 326.565 211.785 323.514 209.02 323.739C206.255 323.965 206.37 326.902 206.37 326.902C206.37 326.902 206.485 329.84 209.48 329.953C209.48 329.953 212.244 329.953 211.9 326.565Z" fill="#C598FA"/>
<path d="M264.72 989.59C264.72 989.59 264.605 986.539 261.841 986.765C259.076 986.99 259.191 989.928 259.191 989.928C259.191 989.928 259.305 992.866 262.3 992.978C262.3 992.978 265.065 992.978 264.72 989.59Z" fill="#C598FA"/>
<path d="M72.9 793.482C72.9 793.482 72.7851 790.432 70.0202 790.657C67.2554 790.883 67.3702 793.82 67.3702 793.82C67.3702 793.82 67.485 796.758 70.4796 796.871C70.4796 796.871 73.2445 796.871 72.9 793.482Z" fill="#C598FA"/>
<path d="M142.415 876.11C142.415 876.11 142.357 874.585 140.975 874.698C139.593 874.81 139.65 876.279 139.65 876.279C139.65 876.279 139.707 877.748 141.205 877.805C141.205 877.805 142.587 877.805 142.415 876.11Z" fill="#C598FA"/>
<path d="M273.071 804.517C273.071 804.517 273.014 802.991 271.631 803.104C270.249 803.217 270.306 804.686 270.306 804.686C270.306 804.686 270.364 806.154 271.861 806.211C271.861 806.211 273.243 806.211 273.071 804.517Z" fill="#C598FA"/>
<path d="M353.696 1065.99C353.696 1065.99 353.639 1064.46 352.256 1064.58C350.874 1064.69 350.931 1066.16 350.931 1066.16C350.931 1066.16 350.989 1067.63 352.486 1067.68C352.486 1067.68 353.868 1067.68 353.696 1065.99Z" fill="#C598FA"/>
<path d="M367.595 396.739C367.595 396.739 367.537 395.214 366.155 395.327C364.772 395.439 364.83 396.908 364.83 396.908C364.83 396.908 364.887 398.377 366.384 398.433C366.384 398.433 367.767 398.433 367.595 396.739Z" fill="#C598FA"/>
<path d="M275.852 82.3486C275.852 82.3486 275.795 80.8233 274.412 80.936C273.03 81.0487 273.087 82.5176 273.087 82.5176C273.087 82.5176 273.145 83.9865 274.642 84.0428C274.642 84.0428 276.025 84.0428 275.852 82.3486Z" fill="#C598FA"/>
<path d="M187.233 387.885C169.44 456.367 131.631 458.961 114.951 451.697C84.3707 442.359 59.3489 347.419 108 289.833C156.652 232.246 209.473 302.283 187.233 387.885Z" fill="#270D66" fill-opacity="0.66"/>
<defs>
<linearGradient id="paint0_linear_0_60" x1="0.648438" y1="591.43" x2="459.362" y2="591.43" gradientUnits="userSpaceOnUse">
<stop stop-color="#260C65"/>
<stop offset="1" stop-color="#37157D"/>
</linearGradient>
<linearGradient id="paint1_linear_0_60" x1="459.281" y1="647.267" x2="240.792" y2="646.727" gradientUnits="userSpaceOnUse">
<stop stop-color="#572D9D"/>
<stop offset="1" stop-color="#572D9D" stop-opacity="0"/>
</linearGradient>
<linearGradient id="paint2_linear_0_60" x1="136.865" y1="1182.86" x2="136.865" y2="-0.000605945" gradientUnits="userSpaceOnUse">
<stop stop-color="#3B1689"/>
<stop offset="1" stop-color="#280B65"/>
</linearGradient>
</defs>
</svg>
