<svg width="410" height="1553" viewBox="0 0 410 1553" fill="none" xmlns="http://www.w3.org/2000/svg">
<path d="M0 0.000488281L0 1553H602L602 0.000488281H0Z" fill="url(#paint0_linear_0_106)"/>
<path opacity="0.12" d="M227.627 1553C227.627 1553 192.017 1435.14 247.755 1376.21C303.493 1317.28 366.982 1258.34 357.695 1161.27C348.408 1064.2 298.849 967.146 298.849 967.146C298.849 967.146 244.647 856.221 303.493 773.021C362.338 689.822 478.476 558.086 466.082 415.976C453.687 273.846 376.268 147.328 376.268 147.328C376.268 147.328 325.174 58.9312 357.695 0L174.979 0C174.979 0 201.303 98.7915 122.33 188.928C43.3575 279.064 74.3251 464.513 161.049 571.98C247.773 679.448 -43.3481 804.247 20.1409 979.301C83.63 1154.36 167.246 1221.96 82.0761 1343.28C-3.0939 1464.6 102.203 1553 102.203 1553H227.627Z" fill="#572D9D" fill-opacity="0.6"/>
<path d="M598.955 1445C598.955 1445 544.067 1436.3 507.829 1384.07C471.592 1331.83 511.974 1216.18 529.579 1176.39C547.184 1136.6 553.401 1057.01 516.118 971.195C478.836 885.401 401.171 849.33 401.171 849.33C401.171 849.33 278.961 798.352 280.007 669.022C281.052 539.692 412.403 462.233 412.403 462.233C412.403 462.233 474.419 416.426 424.993 244.962C399.099 99.4691 528.552 67.1422 528.552 67.1422C528.552 67.1422 600 58.4439 600 0L598.973 1445H598.955Z" fill="#2E116B"/>
<path d="M539.951 1467.5C539.951 1467.5 542.022 1521.55 437.472 1507.74C332.922 1493.93 265.654 1422.63 265.654 1422.63C265.654 1422.63 243.915 1404.22 255.298 1383.52C266.68 1362.83 326.708 1355.93 317.397 1301.87C308.086 1247.82 342.233 1239.77 342.233 1239.77C342.233 1239.77 368.114 1225.96 389.853 1275.44C411.591 1324.89 436.427 1395.05 495.429 1424.95C495.429 1424.95 542.004 1444.5 539.933 1467.5H539.951Z" fill="#280B65" fill-opacity="0.53"/>
<path opacity="0.6" d="M401.571 1553C401.571 1553 448.324 1489.63 373.512 1427.43C298.7 1365.22 258.184 1338.72 259.214 1256.91C260.245 1175.12 260.245 1140.54 241.551 1112.9C222.857 1085.26 204.145 1034.56 251.947 995.387C299.748 956.216 346.502 913.598 344.422 855.984C342.343 798.37 287.274 753.446 287.274 753.446C287.274 753.446 227.015 716.581 233.253 639.382C239.49 562.183 206.242 521.869 178.183 479.251C150.124 436.632 134.539 404.357 135.588 341.01C136.618 277.643 225.985 148.604 249.886 92.1534C273.787 35.7026 271.689 0 271.689 0L93.4901 0C93.4901 0 140.243 188.367 87.2526 326.607C58.1609 416.397 134.811 557.074 194.021 681.503C253.23 805.931 -37.4408 1093.89 70.1043 1283.99C70.1043 1283.99 99.7091 1337.56 144.917 1373.85C190.106 1410.15 157.392 1513.83 229.076 1551.86L401.553 1553H401.571Z" fill="url(#paint1_linear_0_106)"/>
<path d="M276.963 1124.35C276.963 1124.35 276.818 1128.27 273.337 1127.98C269.856 1127.7 270.001 1123.92 270.001 1123.92C270.001 1123.92 270.145 1120.14 273.915 1120C273.915 1120 277.396 1120 276.963 1124.35Z" fill="#C598FA"/>
<path d="M346.963 253.354C346.963 253.354 346.818 257.274 343.337 256.985C339.856 256.695 340.001 252.92 340.001 252.92C340.001 252.92 340.145 249.145 343.915 249C343.915 249 347.396 249 346.963 253.354Z" fill="#C598FA"/>
<path d="M94.9626 511.354C94.9626 511.354 94.818 515.274 91.3371 514.985C87.8563 514.695 88.0009 510.92 88.0009 510.92C88.0009 510.92 88.1454 507.145 91.9154 507C91.9154 507 95.3963 507 94.9626 511.354Z" fill="#C598FA"/>
<path d="M185.979 403.177C185.979 403.177 185.896 405.137 183.907 404.992C181.918 404.848 182 402.96 182 402.96C182 402.96 182.083 401.072 184.237 401C184.237 401 186.226 401 185.979 403.177Z" fill="#C598FA"/>
<path d="M357.979 497.177C357.979 497.177 357.896 499.137 355.907 498.992C353.918 498.848 354 496.96 354 496.96C354 496.96 354.083 495.072 356.237 495C356.237 495 358.226 495 357.979 497.177Z" fill="#C598FA"/>
<path d="M360.979 1445.18C360.979 1445.18 360.896 1447.14 358.907 1446.99C356.918 1446.85 357 1444.96 357 1444.96C357 1444.96 357.083 1443.07 359.237 1443C359.237 1443 361.226 1443 360.979 1445.18Z" fill="#C598FA"/>
<path d="M245.119 1043.51C221.735 953.5 172.045 950.091 150.123 959.637C109.934 971.911 77.0496 1096.69 140.989 1172.38C204.928 1248.07 274.348 1156.01 245.119 1043.51Z" fill="#270D66" fill-opacity="0.66"/>
<defs>
<linearGradient id="paint0_linear_0_106" x1="0" y1="776.5" x2="602" y2="776.5" gradientUnits="userSpaceOnUse">
<stop stop-color="#260C65"/>
<stop offset="1" stop-color="#37157D"/>
</linearGradient>
<linearGradient id="paint1_linear_0_106" x1="178.539" y1="-5.78537e-06" x2="178.539" y2="1553" gradientUnits="userSpaceOnUse">
<stop stop-color="#3B1689"/>
<stop offset="1" stop-color="#280B65"/>
</linearGradient>
</defs>
</svg>
