<svg width="215" height="729" viewBox="0 0 215 729" fill="none" xmlns="http://www.w3.org/2000/svg">
<g clip-path="url(#clip0_1_1034)">
<path d="M215 729.198L215 -94.2148L-166.079 -94.2148L-166.079 729.198H215Z" fill="url(#paint0_linear_1_1034)"/>
<path opacity="0.12" d="M70.931 -94.2141C70.931 -94.2141 93.4764 -31.7225 58.1884 -0.476685C22.9003 30.7691 -17.295 62.0148 -11.4156 113.484C-5.53615 164.952 25.84 216.41 25.84 216.41C25.84 216.41 60.1559 275.224 22.9003 319.337C-14.3553 363.45 -87.8827 433.297 -80.0357 508.645C-72.1888 584.004 -23.1744 651.085 -23.1744 651.085C-23.1744 651.085 9.17396 697.953 -11.4156 729.199H104.263C104.263 729.199 87.597 676.819 137.595 629.028C187.593 581.237 167.988 482.911 113.082 425.931C58.1768 368.951 242.487 302.781 202.292 209.966C162.097 117.151 109.159 81.3048 163.08 16.9797C217.002 -47.3454 150.338 -94.2141 150.338 -94.2141H70.931Z" fill="#572D9D" fill-opacity="0.6"/>
<path d="M-164.277 -36.9429C-164.277 -36.9429 -129.59 -32.6702 -106.689 -7.01221C-83.7886 18.6458 -109.308 75.4568 -120.434 95.0031C-131.56 114.549 -135.489 153.642 -111.928 195.796C-88.3664 237.939 -39.2854 255.658 -39.2854 255.658C-39.2854 255.658 37.9463 280.699 37.2857 344.227C36.6251 407.756 -24.2308 452.96 -24.2308 452.96C-24.2308 452.96 -70.6926 481.063 -54.34 552.531C-37.9758 623.999 -119.785 639.878 -119.785 639.878C-119.785 639.878 -164.938 644.151 -164.938 672.859L-164.288 -36.9429H-164.277Z" fill="#2E116B"/>
<path d="M-126.782 -49.2517C-126.782 -49.2517 -128.091 -77.96 -61.9854 -70.6261C4.12045 -63.2921 46.6535 -25.4217 46.6535 -25.4217C46.6535 -25.4217 60.3985 -15.6431 53.2015 -4.65305C46.0045 6.33705 8.04926 10.004 13.9367 38.7124C19.8241 67.4207 -1.76695 71.6935 -1.76695 71.6935C-1.76695 71.6935 -18.1312 79.0275 -31.8762 52.7529C-45.6212 26.4892 -61.3248 -10.7755 -98.631 -26.6549C-98.631 -26.6549 -128.08 -37.0393 -126.77 -49.2517H-126.782Z" fill="#280B65" fill-opacity="0.53"/>
<path opacity="0.6" d="M-39.1594 -94.2141C-39.1594 -94.2141 -68.7167 -60.6164 -21.4205 -27.6353C25.8757 5.34583 51.4897 19.3971 50.8383 62.7733C50.1869 106.139 50.1869 124.474 62.0051 139.131C73.8233 153.788 85.6532 180.668 55.433 201.437C25.2127 222.205 -4.34451 244.802 -3.03008 275.349C-1.71565 305.897 33.0993 329.716 33.0993 329.716C33.0993 329.716 71.1945 349.262 67.2512 390.194C63.3079 431.125 84.3272 452.5 102.066 475.097C119.805 497.693 129.658 514.806 128.994 548.393C128.343 581.99 71.8459 650.408 56.7358 680.339C41.6256 710.269 42.9517 729.199 42.9517 729.199H155.609C155.609 729.199 126.052 629.326 159.552 556.03C193.053 482.733 195.018 391.102 157.586 325.129C120.154 259.156 238.383 149.212 170.393 48.4192C170.393 48.4192 151.677 20.0137 123.097 0.770203C94.5285 -18.4733 115.21 -73.4454 69.8917 -93.6083L-39.1478 -94.2141H-39.1594Z" fill="url(#paint1_linear_1_1034)"/>
<path d="M39.5012 133.116C39.5012 133.116 39.5966 130.992 41.8936 131.149C44.1905 131.306 44.0951 133.351 44.0951 133.351C44.0951 133.351 43.9997 135.396 41.512 135.475C41.512 135.475 39.215 135.475 39.5012 133.116Z" fill="#C598FA"/>
<path d="M-4.38157 594.663C-4.38157 594.663 -4.28616 592.539 -1.98922 592.696C0.307731 592.853 0.212329 594.898 0.212329 594.898C0.212329 594.898 0.11693 596.943 -2.37082 597.021C-2.37082 597.021 -4.66777 597.021 -4.38157 594.663Z" fill="#C598FA"/>
<path d="M154.986 458.149C154.986 458.149 155.081 456.025 157.378 456.182C159.675 456.339 159.58 458.384 159.58 458.384C159.58 458.384 159.484 460.429 156.996 460.508C156.996 460.508 154.699 460.508 154.986 458.149Z" fill="#5D3092"/>
<path d="M97.2311 515.666C97.2311 515.666 97.2788 514.605 98.4273 514.683C99.5757 514.761 99.528 515.784 99.528 515.784C99.528 515.784 99.4803 516.806 98.2365 516.846C98.2365 516.846 97.088 516.846 97.2311 515.666Z" fill="#C598FA"/>
<path d="M59.9983 175.801C74.7795 223.472 106.19 225.278 120.047 220.222C145.451 213.721 166.239 147.632 125.821 107.545C85.4036 67.4574 41.5217 116.212 59.9983 175.801Z" fill="#270D66" fill-opacity="0.66"/>
<rect width="215" height="234.893" transform="matrix(-1 0 0 1 215 494.107)" fill="url(#paint2_linear_1_1034)"/>
<rect x="215" y="234.893" width="215" height="234.893" transform="rotate(180 215 234.893)" fill="url(#paint3_linear_1_1034)"/>
</g>
<defs>
<linearGradient id="paint0_linear_1_1034" x1="215" y1="317.492" x2="-166.079" y2="317.492" gradientUnits="userSpaceOnUse">
<stop stop-color="#260C65"/>
<stop offset="1" stop-color="#37157D"/>
</linearGradient>
<linearGradient id="paint1_linear_1_1034" x1="101.841" y1="729.199" x2="101.841" y2="-94.214" gradientUnits="userSpaceOnUse">
<stop stop-color="#3B1689"/>
<stop offset="1" stop-color="#280B65"/>
</linearGradient>
<linearGradient id="paint2_linear_1_1034" x1="99.2004" y1="85.506" x2="99.8257" y2="234.897" gradientUnits="userSpaceOnUse">
<stop stop-color="#260C65" stop-opacity="0"/>
<stop offset="1" stop-color="#260C65"/>
</linearGradient>
<linearGradient id="paint3_linear_1_1034" x1="314.2" y1="320.399" x2="314.826" y2="469.789" gradientUnits="userSpaceOnUse">
<stop stop-color="#260C65" stop-opacity="0"/>
<stop offset="1" stop-color="#260C65"/>
</linearGradient>
<clipPath id="clip0_1_1034">
<rect width="215" height="729" fill="white" transform="matrix(-1 0 0 1 215 0)"/>
</clipPath>
</defs>
</svg>
