<svg width="222" height="1066" viewBox="0 0 222 1066" fill="none" xmlns="http://www.w3.org/2000/svg">
<path d="M0.828247 1057.83L0.828247 0L411.001 0L411.001 1057.83H0.828247Z" fill="url(#paint0_linear_1_1011)"/>
<path opacity="0.12" d="M155.897 0.000488281C155.897 0.000488281 131.631 80.2825 169.613 120.423C207.595 160.564 250.859 200.705 244.531 266.826C238.202 332.947 204.431 399.055 204.431 399.055C204.431 399.055 167.495 474.612 207.595 531.283C247.695 587.954 326.836 677.686 318.39 774.484C309.944 871.296 257.187 957.474 257.187 957.474C257.187 957.474 222.369 1017.69 244.531 1057.83H120.02C120.02 1057.83 137.959 990.534 84.1436 929.138C30.3283 867.742 51.4308 741.423 110.528 668.222C169.625 595.02 -28.7565 510.014 14.5075 390.776C57.7716 271.537 114.751 225.487 56.7127 142.849C-1.32562 60.2119 70.4282 0.000488281 70.4282 0.000488281H155.897Z" fill="#572D9D" fill-opacity="0.6"/>
<path d="M409.163 73.6346C409.163 73.6346 371.802 79.559 347.135 115.136C322.468 150.712 349.956 229.485 361.94 256.587C373.924 283.69 378.155 337.895 352.777 396.344C327.399 454.778 274.533 479.346 274.533 479.346C274.533 479.346 191.346 514.068 192.058 602.154C192.769 690.241 282.179 742.998 282.179 742.998C282.179 742.998 324.393 774.197 290.749 890.982C273.123 990.078 361.241 1012.1 361.241 1012.1C361.241 1012.1 409.875 1018.02 409.875 1057.83L409.176 73.6346H409.163Z" fill="#2E116B"/>
<path d="M368.701 57.7631C368.701 57.7631 370.111 20.882 298.958 30.3038C227.805 39.7256 182.025 88.377 182.025 88.377C182.025 88.377 167.231 100.939 174.977 115.058C182.723 129.177 223.576 133.888 217.24 170.769C210.903 207.65 234.142 213.139 234.142 213.139C234.142 213.139 251.756 222.561 266.55 188.807C281.344 155.066 298.247 107.193 338.401 86.7928C338.401 86.7928 370.098 73.4522 368.689 57.7631H368.701Z" fill="#280B65" fill-opacity="0.53"/>
<path opacity="0.6" d="M274.393 0.000488281C274.393 0.000488281 306.207 43.1628 255.299 85.5331C204.392 127.903 176.823 145.955 177.524 201.68C178.225 257.391 178.225 280.945 165.505 299.775C152.784 318.604 140.051 353.137 172.579 379.818C205.106 406.5 236.92 435.529 235.505 474.773C234.09 514.016 196.617 544.616 196.617 544.616C196.617 544.616 155.614 569.727 159.858 622.311C164.102 674.896 141.478 702.355 122.385 731.385C103.292 760.414 92.6873 782.398 93.4009 825.547C94.1021 868.709 154.913 956.604 171.176 995.056C187.44 1033.51 186.013 1057.83 186.013 1057.83H64.7547C64.7547 1057.83 96.5685 929.52 60.5104 835.358C40.7146 774.198 92.8722 678.375 133.162 593.621C173.452 508.866 -24.3389 312.726 48.8416 183.239C48.8416 183.239 68.9866 146.747 99.7487 122.025C130.498 97.3035 108.237 26.6816 157.016 0.778687L274.38 0.000488281H274.393Z" fill="url(#paint1_linear_1_1011)"/>
<path d="M65.4344 709.609C65.4344 709.609 65.3317 706.881 62.8594 707.083C60.3871 707.284 60.4897 709.912 60.4897 709.912C60.4897 709.912 60.5924 712.539 63.2701 712.64C63.2701 712.64 65.7424 712.64 65.4344 709.609Z" fill="#C598FA"/>
<path d="M127.596 783.502C127.596 783.502 127.545 782.138 126.309 782.239C125.072 782.34 125.124 783.654 125.124 783.654C125.124 783.654 125.175 784.967 126.514 785.018C126.514 785.018 127.75 785.018 127.596 783.502Z" fill="#C598FA"/>
<path d="M167.67 346.886C151.76 408.129 117.952 410.448 103.036 403.953C75.6924 395.601 53.3183 310.698 96.8215 259.198C140.325 207.699 187.557 270.333 167.67 346.886Z" fill="#270D66" fill-opacity="0.66"/>
<rect x="1" y="807.162" width="408.638" height="258.837" fill="url(#paint2_linear_1_1011)"/>
<rect width="408.638" height="199.577" transform="matrix(1 0 0 -1 1 199.577)" fill="url(#paint3_linear_1_1011)"/>
<defs>
<linearGradient id="paint0_linear_1_1011" x1="0.828247" y1="528.913" x2="411.001" y2="528.913" gradientUnits="userSpaceOnUse">
<stop stop-color="#260C65"/>
<stop offset="1" stop-color="#37157D"/>
</linearGradient>
<linearGradient id="paint1_linear_1_1011" x1="122.628" y1="1057.83" x2="122.628" y2="0.000492222" gradientUnits="userSpaceOnUse">
<stop stop-color="#3B1689"/>
<stop offset="1" stop-color="#280B65"/>
</linearGradient>
<linearGradient id="paint2_linear_1_1011" x1="189.544" y1="901.384" x2="189.944" y2="1066.01" gradientUnits="userSpaceOnUse">
<stop stop-color="#260C65" stop-opacity="0"/>
<stop offset="1" stop-color="#260C65"/>
</linearGradient>
<linearGradient id="paint3_linear_1_1011" x1="188.544" y1="72.6503" x2="188.782" y2="199.582" gradientUnits="userSpaceOnUse">
<stop stop-color="#260C65" stop-opacity="0"/>
<stop offset="1" stop-color="#260C65"/>
</linearGradient>
</defs>
</svg>
