<svg width="197" height="1137" viewBox="0 0 197 1137" fill="none" xmlns="http://www.w3.org/2000/svg">
<path d="M145.328 1118.36L145.328 0L-288.412 0L-288.412 1118.36H145.328Z" fill="url(#paint0_linear_1_968)"/>
<path opacity="0.12" d="M-18.658 0.000488281C-18.658 0.000488281 7.00305 84.8765 -33.1614 127.314C-73.3259 169.752 -119.076 212.19 -112.384 282.095C-105.692 352 -69.98 421.89 -69.98 421.89C-69.98 421.89 -30.922 501.77 -73.3259 561.684C-115.73 621.599 -199.418 716.465 -190.487 818.802C-181.555 921.155 -125.768 1012.26 -125.768 1012.26C-125.768 1012.26 -88.9491 1075.92 -112.384 1118.36H19.2803C19.2803 1118.36 0.311142 1047.22 57.2185 982.306C114.126 917.397 91.8109 783.85 29.3181 706.46C-33.1746 629.069 176.605 539.198 130.856 413.137C85.1058 287.076 24.8525 238.39 86.2255 151.024C147.599 63.6575 71.722 0.000488281 71.722 0.000488281H-18.658Z" fill="#572D9D" fill-opacity="0.6"/>
<path opacity="0.6" d="M-143.961 0.000488281C-143.961 0.000488281 -177.603 45.6328 -123.771 90.4276C-69.9391 135.222 -40.7856 154.307 -41.527 213.22C-42.2684 272.119 -42.2684 297.022 -28.817 316.929C-15.3656 336.836 -1.901 373.345 -36.2974 401.553C-70.6937 429.761 -104.335 460.452 -102.839 501.941C-101.343 543.43 -61.7173 575.781 -61.7173 575.781C-61.7173 575.781 -18.3578 602.329 -22.846 657.922C-27.3342 713.515 -3.41032 742.546 16.78 773.237C36.9703 803.928 48.1842 827.17 47.4296 872.787C46.6881 918.42 -17.6164 1011.34 -34.8145 1052C-52.0127 1092.65 -50.5034 1118.36 -50.5034 1118.36H77.7216C77.7216 1118.36 44.08 982.71 82.2099 883.16C103.143 818.5 47.9887 717.194 5.38379 627.59C-37.2211 537.985 171.934 330.621 94.5491 193.725C94.5491 193.725 73.2467 155.144 40.7171 129.008C8.20076 102.871 31.7407 28.2085 -19.8406 0.823242L-143.948 0.000488281H-143.961Z" fill="url(#paint1_linear_1_968)"/>
<path d="M77.0125 750.216C77.0125 750.216 77.1211 747.332 79.7354 747.545C82.3498 747.758 82.2412 750.536 82.2412 750.536C82.2412 750.536 82.1326 753.313 79.3011 753.42C79.3011 753.42 76.6867 753.42 77.0125 750.216Z" fill="#4E1C89"/>
<path d="M11.2797 828.338C11.2797 828.338 11.334 826.896 12.6411 827.002C13.9483 827.109 13.894 828.497 13.894 828.497C13.894 828.497 13.8397 829.886 12.424 829.939C12.424 829.939 11.1168 829.939 11.2797 828.338Z" fill="#C598FA"/>
<path d="M-31.0959 366.736C-14.2721 431.483 21.4786 433.935 37.251 427.068C66.166 418.239 89.8256 328.476 43.8228 274.03C-2.1799 219.584 -52.1257 285.802 -31.0959 366.736Z" fill="#270D66" fill-opacity="0.66"/>
<rect width="512.058" height="485.366" transform="matrix(-1 0 0 1 197 651.634)" fill="url(#paint2_linear_1_968)"/>
<defs>
<linearGradient id="paint0_linear_1_968" x1="145.328" y1="559.179" x2="-288.412" y2="559.179" gradientUnits="userSpaceOnUse">
<stop stop-color="#260C65"/>
<stop offset="1" stop-color="#37157D"/>
</linearGradient>
<linearGradient id="paint1_linear_1_968" x1="16.5235" y1="1118.36" x2="16.5235" y2="0.000492447" gradientUnits="userSpaceOnUse">
<stop stop-color="#3B1689"/>
<stop offset="1" stop-color="#280B65"/>
</linearGradient>
<linearGradient id="paint2_linear_1_968" x1="236.262" y1="176.684" x2="237.383" y2="485.376" gradientUnits="userSpaceOnUse">
<stop stop-color="#260C65" stop-opacity="0"/>
<stop offset="1" stop-color="#260C65"/>
</linearGradient>
</defs>
</svg>
