<svg width="345" height="1335" viewBox="0 0 345 1335" fill="none" xmlns="http://www.w3.org/2000/svg">
<g clip-path="url(#clip0_1_91)">
<path d="M0 1335.32L0 0.238281L615.044 0.238281L615.044 1335.32H0Z" fill="url(#paint0_linear_1_91)"/>
<path opacity="0.12" d="M232.525 0.240601C232.525 0.240601 196.138 101.564 253.091 152.226C310.045 202.888 374.918 253.55 365.429 337.001C355.94 420.453 305.3 503.887 305.3 503.887C305.3 503.887 249.916 599.247 310.045 670.772C370.174 742.297 488.843 855.547 476.179 977.716C463.514 1099.9 384.407 1208.67 384.407 1208.67C384.407 1208.67 332.198 1284.66 365.429 1335.32H178.729C178.729 1335.32 205.627 1250.39 124.933 1172.91C44.2379 1095.42 75.8806 935.99 164.495 843.603C253.11 751.215 -44.3583 643.928 20.515 493.438C85.3884 342.947 170.828 284.827 83.8006 180.53C-3.22638 76.2334 104.367 0.240601 104.367 0.240601H232.525Z" fill="#572D9D" fill-opacity="0.6"/>
<path d="M612.137 93.0997C612.137 93.0997 556.154 100.027 519.193 141.629C482.233 183.231 523.42 275.344 541.377 307.037C559.334 338.729 565.674 402.114 527.648 470.463C489.621 538.794 410.406 567.522 410.406 567.522C410.406 567.522 285.758 608.124 286.824 711.129C287.89 814.134 386.109 887.428 386.109 887.428C386.109 887.428 461.096 932.994 434.704 1048.87C408.293 1164.75 540.33 1190.5 540.33 1190.5C540.33 1190.5 613.203 1197.42 613.203 1243.97L612.156 93.0997H612.137Z" fill="#2E116B"/>
<path d="M551.622 73.143C551.622 73.143 553.736 26.5953 447.044 38.4866C340.352 50.3778 271.706 111.781 271.706 111.781C271.706 111.781 249.522 127.636 261.138 145.455C272.753 163.274 334.011 169.22 324.509 215.768C315.007 262.316 349.854 269.243 349.854 269.243C349.854 269.243 376.265 281.135 398.449 238.533C420.633 195.949 445.978 135.528 506.188 109.781C506.188 109.781 553.717 92.9442 551.603 73.143H551.622Z" fill="#280B65" fill-opacity="0.53"/>
<path opacity="0.6" d="M410.208 0.240601C410.208 0.240601 457.912 54.7158 381.578 108.191C305.244 161.667 263.904 184.45 264.955 254.78C266.007 325.092 266.007 354.821 246.933 378.586C227.859 402.351 208.766 445.934 257.54 479.609C306.314 513.283 354.018 549.921 351.896 599.451C349.775 648.98 293.585 687.6 293.585 687.6C293.585 687.6 232.101 719.293 238.466 785.659C244.83 852.026 210.906 886.682 182.276 923.32C153.646 959.959 137.745 987.705 138.815 1042.16C139.866 1096.64 231.05 1207.57 255.437 1256.1C279.824 1304.63 277.684 1335.32 277.684 1335.32H95.8606C95.8606 1335.32 143.565 1173.39 89.4964 1054.55C35.4281 935.703 32.2553 787.132 92.6691 680.164C153.083 573.195 -37.733 394.932 71.9993 231.506C71.9993 231.506 102.206 185.449 148.333 154.248C194.441 123.047 161.062 33.9149 234.204 1.22278L410.189 0.240601H410.208Z" fill="url(#paint1_linear_1_91)"/>
<path d="M283.249 368.832C283.249 368.832 283.095 365.389 279.388 365.643C275.681 365.897 275.835 369.213 275.835 369.213C275.835 369.213 275.989 372.529 280.004 372.656C280.004 372.656 283.711 372.656 283.249 368.832Z" fill="#532489"/>
<path d="M96.8664 895.841C96.8664 895.841 96.7124 892.398 93.0053 892.653C89.2981 892.907 89.4521 896.223 89.4521 896.223C89.4521 896.223 89.606 899.539 93.6212 899.666C93.6212 899.666 97.3283 899.666 96.8664 895.841Z" fill="#5D3092"/>
<path d="M190.074 989.101C190.074 989.101 189.997 987.38 188.143 987.507C186.29 987.634 186.367 989.292 186.367 989.292C186.367 989.292 186.444 990.95 188.451 991.014C188.451 991.014 190.305 991.014 190.074 989.101Z" fill="#C598FA"/>
<path d="M250.175 438.044C226.319 515.338 175.624 518.266 153.259 510.068C112.257 499.527 78.7081 392.37 143.94 327.373C209.172 262.376 279.995 341.426 250.175 438.044Z" fill="#270D66" fill-opacity="0.66"/>
<rect y="1016" width="347" height="319" fill="url(#paint2_linear_1_91)"/>
<rect width="347" height="201" transform="matrix(1 0 0 -1 0 353)" fill="url(#paint3_linear_1_91)"/>
</g>
<defs>
<linearGradient id="paint0_linear_1_91" x1="0" y1="667.779" x2="615.044" y2="667.779" gradientUnits="userSpaceOnUse">
<stop stop-color="#260C65"/>
<stop offset="1" stop-color="#37157D"/>
</linearGradient>
<linearGradient id="paint1_linear_1_91" x1="182.64" y1="1335.32" x2="182.64" y2="0.240606" gradientUnits="userSpaceOnUse">
<stop stop-color="#3B1689"/>
<stop offset="1" stop-color="#280B65"/>
</linearGradient>
<linearGradient id="paint2_linear_1_91" x1="160.105" y1="1132.12" x2="160.819" y2="1335.01" gradientUnits="userSpaceOnUse">
<stop stop-color="#260C65" stop-opacity="0"/>
<stop offset="1" stop-color="#260C65"/>
</linearGradient>
<linearGradient id="paint3_linear_1_91" x1="160.105" y1="73.1683" x2="160.388" y2="201.005" gradientUnits="userSpaceOnUse">
<stop stop-color="#260C65" stop-opacity="0"/>
<stop offset="1" stop-color="#260C65"/>
</linearGradient>
<clipPath id="clip0_1_91">
<rect width="345" height="1335" fill="white"/>
</clipPath>
</defs>
</svg>
