<svg width="196" height="60" viewBox="0 0 196 60" fill="none" xmlns="http://www.w3.org/2000/svg">
<g clip-path="url(#clip0_1_816)">
<path d="M188.741 60H7.25926C3.26848 60 0 56.6231 0 52.5V7.5C0 3.37688 3.26848 0 7.25926 0H188.741C192.732 0 196 3.37688 196 7.5V52.5C196 56.6231 192.732 60 188.741 60Z" fill="url(#paint0_linear_1_816)"/>
<path d="M72.1923 16.5768C72.1923 17.5512 71.8943 18.3317 71.307 18.9137C70.6319 19.6037 69.7526 19.9509 68.675 19.9509C67.6451 19.9509 66.7658 19.5978 66.0445 18.902C65.3216 18.196 64.9609 17.3295 64.9609 16.2923C64.9609 15.2552 65.3216 14.3887 66.0445 13.6885C66.7658 12.9868 67.6451 12.6338 68.675 12.6338C69.1877 12.6338 69.6766 12.7374 70.143 12.9299C70.608 13.1239 70.9866 13.3865 71.2608 13.7103L70.6379 14.3259C70.1594 13.7731 69.5081 13.5003 68.675 13.5003C67.9238 13.5003 67.2725 13.757 66.7196 14.2749C66.1726 14.7942 65.8984 15.4667 65.8984 16.2923C65.8984 17.118 66.1726 17.7963 66.7196 18.3156C67.2725 18.8276 67.9238 19.0902 68.675 19.0902C69.4724 19.0902 70.1431 18.8276 70.6721 18.3098C71.0209 17.967 71.2191 17.4943 71.2713 16.8904H68.675V16.0473H72.1387C72.1804 16.2296 72.1923 16.4061 72.1923 16.5768Z" fill="white" stroke="white" stroke-width="0.16" stroke-miterlimit="10"/>
<path d="M78.6982 13.5324H75.3167V15.8514H78.3652V16.7332H75.3167V19.0522H78.6982V19.9509H74.3594V12.6338H78.6982V13.5324Z" fill="white" stroke="white" stroke-width="0.16" stroke-miterlimit="10"/>
<path d="M82.8558 19.9509H81.7714V13.5324H79.4219V12.6338H85.207V13.5324H82.8558V19.9509Z" fill="white" stroke="white" stroke-width="0.16" stroke-miterlimit="10"/>
<path d="M88.8281 19.9509V12.6338H89.5515V19.9509H88.8281Z" fill="white" stroke="white" stroke-width="0.16" stroke-miterlimit="10"/>
<path d="M93.7031 19.9509H92.6288V13.5324H90.2734V12.6338H96.0586V13.5324H93.7031V19.9509Z" fill="white" stroke="white" stroke-width="0.16" stroke-miterlimit="10"/>
<path d="M105.76 18.8904C104.997 19.5978 104.053 19.9509 102.926 19.9509C101.792 19.9509 100.848 19.5978 100.085 18.8904C99.3242 18.1843 98.9453 17.3178 98.9453 16.2923C98.9453 15.2668 99.3242 14.4003 100.085 13.6943C100.848 12.9868 101.792 12.6338 102.926 12.6338C104.046 12.6338 104.991 12.9868 105.754 13.7001C106.521 14.412 106.9 15.2727 106.9 16.2923C106.9 17.3178 106.521 18.1843 105.76 18.8904ZM100.822 18.3039C101.396 18.8276 102.094 19.0902 102.926 19.0902C103.751 19.0902 104.456 18.8276 105.023 18.3039C105.596 17.7802 105.886 17.1078 105.886 16.2923C105.886 15.4769 105.596 14.8044 105.023 14.2807C104.456 13.757 103.751 13.4944 102.926 13.4944C102.094 13.4944 101.396 13.757 100.822 14.2807C100.25 14.8044 99.9594 15.4769 99.9594 16.2923C99.9594 17.1078 100.25 17.7802 100.822 18.3039Z" fill="white" stroke="white" stroke-width="0.16" stroke-miterlimit="10"/>
<path d="M108.352 19.9509V12.6338H109.525L113.172 18.3245H113.214L113.172 16.9178V12.6338H114.137V19.9509H113.129L109.31 13.9794H109.268L109.31 15.3922V19.9509H108.352Z" fill="white" stroke="white" stroke-width="0.16" stroke-miterlimit="10"/>
<path d="M97.2831 32.9295C94.4182 32.9295 92.0779 35.0797 92.0779 38.0465C92.0779 40.9892 94.4182 43.1621 97.2831 43.1621C100.154 43.1621 102.494 40.9892 102.494 38.0465C102.494 35.0797 100.154 32.9295 97.2831 32.9295ZM97.2831 41.1471C95.7111 41.1471 94.3588 39.8675 94.3588 38.0465C94.3588 36.2015 95.7111 34.9444 97.2831 34.9444C98.855 34.9444 100.213 36.2015 100.213 38.0465C100.213 39.8675 98.855 41.1471 97.2831 41.1471ZM85.9258 32.9295C83.0549 32.9295 80.7206 35.0797 80.7206 38.0465C80.7206 40.9892 83.0549 43.1621 85.9258 43.1621C88.7952 43.1621 91.131 40.9892 91.131 38.0465C91.131 35.0797 88.7952 32.9295 85.9258 32.9295ZM85.9258 41.1471C84.3524 41.1471 82.9954 39.8675 82.9954 38.0465C82.9954 36.2015 84.3524 34.9444 85.9258 34.9444C87.4978 34.9444 88.8501 36.2015 88.8501 38.0465C88.8501 39.8675 87.4978 41.1471 85.9258 41.1471ZM72.4112 34.4978V36.6721H77.6758C77.5219 37.8871 77.1102 38.7803 76.479 39.4029C75.7105 40.1547 74.5137 40.9892 72.4112 40.9892C69.1712 40.9892 66.6342 38.4104 66.6342 35.2151C66.6342 32.0197 69.1712 29.4409 72.4112 29.4409C74.163 29.4409 75.4376 30.1161 76.3784 30.9912L77.932 29.4589C76.6162 28.2199 74.8659 27.2681 72.4112 27.2681C67.9683 27.2681 64.2344 30.8333 64.2344 35.2151C64.2344 39.5968 67.9683 43.1621 72.4112 43.1621C74.8125 43.1621 76.6162 42.3862 78.0341 40.9306C79.4872 39.4976 79.94 37.4826 79.94 35.8556C79.94 35.3504 79.8973 34.8858 79.8211 34.4978H72.4112ZM127.674 36.1834C127.246 35.0391 125.924 32.9295 123.231 32.9295C120.563 32.9295 118.342 35.003 118.342 38.0465C118.342 40.9126 120.54 43.1621 123.488 43.1621C125.871 43.1621 127.246 41.7291 127.812 40.8945L126.043 39.7322C125.453 40.5833 124.649 41.1471 123.488 41.1471C122.333 41.1471 121.505 40.6254 120.975 39.5968L127.914 36.7654L127.674 36.1834ZM120.6 37.8871C120.54 35.9143 122.153 34.9038 123.309 34.9038C124.215 34.9038 124.983 35.3504 125.239 35.9895L120.6 37.8871ZM114.96 42.8508H117.241V27.8139H114.96V42.8508ZM111.225 34.0693H111.148C110.636 33.4708 109.659 32.9295 108.421 32.9295C105.823 32.9295 103.447 35.179 103.447 38.0631C103.447 40.9306 105.823 43.1621 108.421 43.1621C109.659 43.1621 110.636 42.6162 111.148 41.9997H111.225V42.7335C111.225 44.6898 110.165 45.7409 108.456 45.7409C107.062 45.7409 106.198 44.7485 105.841 43.9139L103.857 44.7304C104.429 46.0868 105.943 47.7559 108.456 47.7559C111.13 47.7559 113.387 46.204 113.387 42.4283V33.2407H111.225V34.0693ZM108.616 41.1471C107.044 41.1471 105.728 39.8494 105.728 38.0631C105.728 36.2601 107.044 34.9444 108.616 34.9444C110.165 34.9444 111.386 36.2601 111.386 38.0631C111.386 39.8494 110.165 41.1471 108.616 41.1471ZM138.353 27.8139H132.898V42.8508H135.173V37.1533H138.353C140.879 37.1533 143.357 35.3504 143.357 32.4829C143.357 29.6168 140.873 27.8139 138.353 27.8139ZM138.413 35.0617H135.173V29.9055H138.413C140.111 29.9055 141.081 31.2964 141.081 32.4829C141.081 33.6467 140.111 35.0617 138.413 35.0617ZM152.475 32.9009C150.831 32.9009 149.122 33.6166 148.419 35.203L150.438 36.0376C150.872 35.203 151.671 34.9324 152.516 34.9324C153.696 34.9324 154.893 35.6316 154.911 36.8661V37.024C154.499 36.7894 153.618 36.4421 152.534 36.4421C150.36 36.4421 148.144 37.6225 148.144 39.8254C148.144 41.8403 149.925 43.138 151.927 43.138C153.458 43.138 154.303 42.4569 154.833 41.6644H154.911V42.8268H157.108V37.0586C157.108 34.3926 155.089 32.9009 152.475 32.9009ZM152.2 41.1411C151.456 41.1411 150.419 40.7772 150.419 39.8675C150.419 38.7036 151.712 38.257 152.831 38.257C153.833 38.257 154.303 38.4751 154.911 38.7623C154.733 40.1547 153.517 41.1411 152.2 41.1411ZM165.113 33.2302L162.498 39.7487H162.42L159.717 33.2302H157.264L161.325 42.3396L159.008 47.4085H161.385L167.643 33.2302H165.113ZM144.607 42.8508H146.888V27.8139H144.607V42.8508Z" fill="white"/>
<path fill-rule="evenodd" clip-rule="evenodd" d="M28.5339 15.4594C28.1955 15.8229 28 16.3784 28 17.1055V42.8936C28 43.6207 28.1955 44.1762 28.5456 44.5252L28.636 44.6037L43.1297 30.1552V29.8323L28.6243 15.3809L28.5339 15.4594Z" fill="url(#paint1_linear_1_816)"/>
<path fill-rule="evenodd" clip-rule="evenodd" d="M47.9514 34.9863L43.1172 30.1672V29.8298L47.9514 25.0107L48.0564 25.0747L53.7746 28.3146C55.4112 29.2336 55.4112 30.7518 53.7746 31.6824L48.0564 34.9223L47.9514 34.9863Z" fill="url(#paint2_linear_1_816)"/>
<path fill-rule="evenodd" clip-rule="evenodd" d="M48.0546 34.9218L43.1154 29.998L28.5312 44.5368C29.0651 45.1068 29.9608 45.1708 30.9615 44.6153L48.0546 34.9218Z" fill="url(#paint3_linear_1_816)"/>
<path fill-rule="evenodd" clip-rule="evenodd" d="M48.0546 25.0751L30.9615 15.3961C29.9608 14.8261 29.0622 14.9046 28.5312 15.4747L43.1154 29.9989L48.0546 25.0751Z" fill="url(#paint4_linear_1_816)"/>
<path opacity="0.2" fill-rule="evenodd" clip-rule="evenodd" d="M47.9458 34.8174L30.9693 44.4323C30.0211 44.9761 29.1751 44.9383 28.6295 44.4439L28.5391 44.5341L28.6295 44.6126C29.1751 45.1041 30.0211 45.1448 30.9693 44.601L48.0625 34.9221L47.9458 34.8174Z" fill="black"/>
<path opacity="0.12" fill-rule="evenodd" clip-rule="evenodd" d="M53.7674 31.5133L47.9297 34.8171L48.0347 34.9218L53.7528 31.682C54.5726 31.2166 54.9752 30.6059 54.9752 29.998C54.9256 30.5564 54.5085 31.0858 53.7674 31.5133Z" fill="black"/>
<path opacity="0.25" fill-rule="evenodd" clip-rule="evenodd" d="M30.9641 15.564L53.7754 28.4828C54.5164 28.8987 54.9336 29.4426 54.9978 29.9981C54.9978 29.3902 54.5951 28.7795 53.7754 28.3142L30.9641 15.3954C29.3274 14.4618 28 15.2412 28 17.1055V17.2741C28 15.407 29.3274 14.6421 30.9641 15.564Z" fill="white"/>
</g>
<defs>
<linearGradient id="paint0_linear_1_816" x1="20.7627" y1="53.3823" x2="189.061" y2="17.2193" gradientUnits="userSpaceOnUse">
<stop stop-color="#24095F"/>
<stop offset="1" stop-color="#210757"/>
</linearGradient>
<linearGradient id="paint1_linear_1_816" x1="41.8297" y1="16.8273" x2="18.6228" y2="23.0301" gradientUnits="userSpaceOnUse">
<stop stop-color="#00A0FF"/>
<stop offset="0.00657" stop-color="#00A1FF"/>
<stop offset="0.2601" stop-color="#00BEFF"/>
<stop offset="0.5122" stop-color="#00D2FF"/>
<stop offset="0.7604" stop-color="#00DFFF"/>
<stop offset="1" stop-color="#00E3FF"/>
</linearGradient>
<linearGradient id="paint2_linear_1_816" x1="55.9089" y1="29.9986" x2="27.6013" y2="29.9986" gradientUnits="userSpaceOnUse">
<stop stop-color="#FFE000"/>
<stop offset="0.4087" stop-color="#FFBD00"/>
<stop offset="0.7754" stop-color="#FFA500"/>
<stop offset="1" stop-color="#FF9C00"/>
</linearGradient>
<linearGradient id="paint3_linear_1_816" x1="45.3689" y1="32.6773" x2="26.8166" y2="63.9998" gradientUnits="userSpaceOnUse">
<stop stop-color="#FF3A44"/>
<stop offset="1" stop-color="#C31162"/>
</linearGradient>
<linearGradient id="paint4_linear_1_816" x1="24.8588" y1="6.88258" x2="33.1357" y2="20.8717" gradientUnits="userSpaceOnUse">
<stop stop-color="#32A071"/>
<stop offset="0.0685" stop-color="#2DA771"/>
<stop offset="0.4762" stop-color="#15CF74"/>
<stop offset="0.8009" stop-color="#06E775"/>
<stop offset="1" stop-color="#00F076"/>
</linearGradient>
<clipPath id="clip0_1_816">
<rect width="196" height="60" rx="6" transform="matrix(1 0 0 -1 0 60)" fill="white"/>
</clipPath>
</defs>
</svg>
