<svg width="24" height="24" viewBox="0 0 24 24" fill="none" xmlns="http://www.w3.org/2000/svg">
<path fill-rule="evenodd" clip-rule="evenodd" d="M1.5 18C1.5 17.5858 1.77653 17.25 2.11765 17.25H21.8824C22.2235 17.25 22.5 17.5858 22.5 18C22.5 18.4142 22.2235 18.75 21.8824 18.75H2.11765C1.77653 18.75 1.5 18.4142 1.5 18Z" fill="white"/>
<path fill-rule="evenodd" clip-rule="evenodd" d="M1.5 12C1.5 11.5858 1.77653 11.25 2.11765 11.25H21.8824C22.2235 11.25 22.5 11.5858 22.5 12C22.5 12.4142 22.2235 12.75 21.8824 12.75H2.11765C1.77653 12.75 1.5 12.4142 1.5 12Z" fill="white"/>
<path fill-rule="evenodd" clip-rule="evenodd" d="M1.5 6C1.5 5.58579 1.77653 5.25 2.11765 5.25H21.8824C22.2235 5.25 22.5 5.58579 22.5 6C22.5 6.41421 22.2235 6.75 21.8824 6.75H2.11765C1.77653 6.75 1.5 6.41421 1.5 6Z" fill="white"/>
</svg>
