<svg width="522" height="179" viewBox="0 0 522 179" fill="none" xmlns="http://www.w3.org/2000/svg">
<g clip-path="url(#clip0_0_580)">
<path d="M241.854 -477.295C399.003 -486.326 542.536 -378.05 573.4 -219.269C607.064 -46.0813 493.938 121.609 320.725 155.278C147.512 188.948 -20.1955 75.8457 -53.8598 -97.3419C-84.7236 -256.123 -8.05297 -394.332 133.562 -454.335" stroke="#42228F" stroke-width="1.76017" stroke-linecap="round"/>
<path d="M489.823 70.2475C490.637 70.3888 491.42 70.5179 492.201 70.6631C493.067 70.8225 493.29 71.1574 493.102 72.0168C493.025 72.3718 492.922 72.7208 492.806 73.1667C487.613 72.045 482.417 72.0369 477.242 73.1606C477.181 73.0638 477.135 73.0154 477.118 72.9589C476.576 70.9819 476.659 70.8487 478.697 70.4957C479.183 70.4109 479.669 70.3424 480.183 70.2596V58.4056C479.375 58.2664 478.58 58.1776 477.813 57.9779C477.462 57.8871 476.91 57.5966 476.898 57.3727C476.867 56.8522 477.06 56.2934 477.278 55.8032C477.339 55.666 477.829 55.6418 478.1 55.6882C480.679 56.1361 483.275 56.4387 485.89 56.3015C487.758 56.2027 489.621 55.9525 491.479 55.7145C492.725 55.5551 493.102 55.8133 493.165 57.0439C493.187 57.4917 493.039 57.8004 492.567 57.8932C492.104 57.986 491.64 58.0828 491.175 58.1696C490.732 58.2523 490.288 58.3229 489.823 58.4016V70.2516V70.2475ZM487.384 58.678H482.656V69.9853H487.384V58.678Z" fill="#B398F2"/>
<path d="M348.278 145.045C347.891 145.694 347.455 146.32 347.128 146.998C346.618 148.045 346.169 149.121 345.727 150.198C345.629 150.436 345.643 150.734 345.653 151.003C345.685 151.867 345.739 152.731 345.787 153.641C345.036 153.694 344.325 153.744 343.552 153.8C343.49 152.924 343.438 152.063 343.368 151.207C343.244 149.723 342.998 148.263 342.369 146.896C341.915 145.915 341.3 145.112 340.101 144.991C339.74 144.955 339.58 144.733 339.714 144.361C339.742 144.282 339.766 144.198 339.776 144.115C339.951 142.542 340.707 142.619 341.795 143.152C342.99 143.736 343.803 144.695 344.407 145.851C344.522 146.074 344.628 146.3 344.786 146.618C345.058 146.141 345.258 145.708 345.529 145.327C346.019 144.639 346.478 143.904 347.084 143.328C348.197 142.265 349.509 142.512 350.256 143.861C351.086 145.357 351.323 147.019 351.549 148.68C351.579 148.903 351.613 149.125 351.645 149.362C354.378 148.418 356.264 148.813 357.545 150.566C358.641 152.065 358.59 154.201 357.419 155.725C356.14 157.39 354.258 157.725 351.649 156.748C351.413 157.262 351.223 157.805 350.934 158.288C349.905 160.002 348.286 160.874 346.39 161.293C345.691 161.448 345.358 161.154 345.202 160.401C345.026 159.555 345.144 159.332 345.879 159.116C346.043 159.068 346.205 159.019 346.367 158.967C348.486 158.299 349.503 157.066 349.639 154.855C349.795 152.304 349.463 149.779 349.054 147.268C348.932 146.525 348.718 145.796 348.546 145.061L348.28 145.045H348.278ZM353.94 155.109C355.031 155.151 355.992 154.263 356.054 153.152C356.116 152.054 355.181 151.064 354.044 151.024C353.003 150.989 352.013 151.899 351.951 152.948C351.887 154.034 352.836 155.065 353.942 155.109H353.94Z" fill="#B398F2"/>
<path d="M42.3548 81.7613C43.4453 82.8057 44.5859 83.8963 45.6905 84.9547C45.1212 85.532 44.618 86.0412 44.0788 86.5865C43.0323 85.498 41.9238 84.3453 40.8032 83.1806C38.9028 85.1131 37.0986 86.9493 35.2664 88.8136C34.663 88.1561 34.1778 87.6269 33.6667 87.0676C35.4287 85.3155 37.2429 83.5114 39.1072 81.6571C37.9005 80.5024 36.7498 79.4019 35.5651 78.2692C36.2286 77.6678 36.7598 77.1847 37.3732 76.6274C38.4217 77.7099 39.5322 78.8546 40.6508 80.0093C43.1085 77.5175 45.5201 75.0718 47.9657 72.5921C47.0797 72.4839 46.1776 72.3796 45.2755 72.2653C44.4075 72.1551 43.5415 72.0087 42.6695 71.9326C42.1583 71.8865 42.01 71.6199 42.03 71.1768C42.044 70.8781 42.0821 70.5794 42.0922 70.2808C42.1082 69.8016 42.2886 69.6092 42.8138 69.6814C44.7403 69.948 46.6707 70.1725 48.6012 70.4111C49.5534 70.5293 50.5076 70.6456 51.55 70.7719C51.9289 73.8831 52.3058 76.9883 52.6887 80.1456C52.1033 80.2137 51.536 80.2879 50.9667 80.344C50.5337 80.3861 50.4395 80.1075 50.3974 79.7447C50.1949 78.0467 49.9784 76.3488 49.7659 74.6529C49.7539 74.5546 49.7358 74.4564 49.7238 74.3742C47.2882 76.8179 44.8706 79.2455 42.3588 81.7653L42.3548 81.7613Z" fill="#B398F2"/>
<path d="M151.682 141.591C150.615 142.3 149.628 142.985 148.611 143.623C147.843 144.106 147.457 144.021 147.012 143.392C146.536 142.716 146.585 142.185 147.279 141.7C149.038 140.466 150.821 139.27 152.684 138C153.137 139.018 153.562 139.97 154.027 141.019C155.034 140.266 155.993 139.561 156.939 138.834C157.8 138.171 158.236 138.253 158.699 139.25C158.946 139.779 159.139 140.332 159.397 140.973C160.377 140.243 161.317 139.552 162.251 138.847C163.225 138.113 163.553 138.182 164.036 139.327C164.495 140.412 164.925 141.511 165.319 142.623C165.379 142.794 165.234 143.125 165.083 143.276C164.916 143.445 164.639 143.505 164.403 143.594C163.712 143.857 163.337 143.717 162.993 143.032C162.796 142.634 162.652 142.209 162.45 141.713C161.09 142.729 159.759 143.721 158.356 144.77C157.95 143.761 157.553 142.772 157.128 141.711C156.143 142.449 155.201 143.152 154.264 143.859C153.405 144.508 153.053 144.441 152.542 143.465C152.24 142.885 151.993 142.276 151.68 141.589L151.682 141.591Z" fill="#B398F2"/>
<path d="M159.385 148.677C160.774 147.687 162.083 146.753 163.495 145.748C163.853 146.602 164.145 147.285 164.424 147.974C164.645 148.521 164.838 149.077 165.059 149.624C165.478 150.656 164.879 151.554 163.793 151.445C163.548 151.421 163.254 151.18 163.115 150.954C162.851 150.518 162.682 150.02 162.437 149.466C161.497 150.162 160.576 150.847 159.651 151.527C158.634 152.274 158.239 152.165 157.744 150.989C157.542 150.513 157.366 150.026 157.143 149.451C156.557 149.886 156.012 150.291 155.469 150.698C155.098 150.976 154.739 151.272 154.36 151.534C153.482 152.143 152.883 151.99 152.42 151.025C152.166 150.498 151.958 149.949 151.694 149.326C150.503 150.111 149.34 150.842 148.218 151.636C147.737 151.976 147.445 151.943 147.192 151.407C147.091 151.196 146.948 151.007 146.838 150.8C146.561 150.269 146.591 149.831 147.139 149.471C148.761 148.406 150.368 147.318 151.975 146.231C152.435 145.92 152.754 146.066 152.98 146.522C153.332 147.232 153.669 147.95 154.046 148.739C155.068 147.976 156.048 147.249 157.018 146.513C157.84 145.889 158.199 145.969 158.664 146.92C158.797 147.194 158.898 147.485 159.014 147.77C159.128 148.05 159.239 148.33 159.381 148.681L159.385 148.677Z" fill="#B398F2"/>
</g>
<defs>
<clipPath id="clip0_0_580">
<rect width="522" height="179" fill="white"/>
</clipPath>
</defs>
</svg>
