<svg width="31" height="31" viewBox="0 0 31 31" fill="none" xmlns="http://www.w3.org/2000/svg">
<path fill-rule="evenodd" clip-rule="evenodd" d="M8.27105 23.2803C7.97816 22.9874 7.93626 22.5545 8.17747 22.3133L22.1532 8.3375C22.3944 8.09629 22.8274 8.13819 23.1203 8.43109C23.4132 8.72398 23.4551 9.15695 23.2139 9.39816L9.23813 23.3739C8.99692 23.6151 8.56395 23.5732 8.27105 23.2803Z" fill="white"/>
<path fill-rule="evenodd" clip-rule="evenodd" d="M23.2711 22.9697C22.9782 23.2626 22.5452 23.3045 22.304 23.0633L8.32822 9.0875C8.08702 8.84629 8.12892 8.41332 8.42181 8.12043C8.7147 7.82753 9.14768 7.78563 9.38888 8.02684L23.3646 22.0026C23.6058 22.2438 23.5639 22.6768 23.2711 22.9697Z" fill="white"/>
</svg>
