<svg width="344" height="109" viewBox="0 0 344 109" fill="none" xmlns="http://www.w3.org/2000/svg">
<g clip-path="url(#clip0_1_436)">
<path fill-rule="evenodd" clip-rule="evenodd" d="M158.946 -314.58C158.964 -314.26 159.239 -314.016 159.559 -314.035C263.025 -319.966 357.526 -248.863 377.846 -144.596C400.009 -30.8672 325.527 79.2522 211.484 101.363C97.4408 123.473 -12.9763 49.2024 -35.14 -64.5261C-55.4635 -168.812 -4.9882 -259.555 88.2563 -298.96C88.5518 -299.085 88.6899 -299.425 88.5647 -299.72C88.4395 -300.014 88.0985 -300.152 87.803 -300.027C-5.94532 -260.409 -56.7093 -169.131 -36.2807 -64.3049C-13.9945 50.0521 97.0327 124.733 211.705 102.501C326.378 80.2679 401.273 -30.4598 378.987 -144.817C358.554 -249.661 263.531 -321.156 159.492 -315.192C159.172 -315.173 158.927 -314.899 158.946 -314.58Z" fill="#42228F"/>
<path d="M322.773 46.3735C323.325 46.4643 323.856 46.5473 324.387 46.6406C324.974 46.7431 325.125 46.9584 324.998 47.5108C324.945 47.7391 324.875 47.9635 324.797 48.2501C321.273 47.529 317.747 47.5238 314.236 48.2462C314.194 48.1839 314.163 48.1528 314.152 48.1165C313.784 46.8455 313.84 46.7599 315.223 46.533C315.553 46.4785 315.882 46.4344 316.231 46.3813V38.7608C315.683 38.6713 315.143 38.6143 314.623 38.4859C314.385 38.4275 314.01 38.2408 314.002 38.0968C313.982 37.7622 314.112 37.403 314.26 37.0878C314.302 36.9996 314.634 36.9841 314.818 37.0139C316.568 37.3018 318.33 37.4964 320.104 37.4082C321.372 37.3446 322.635 37.1838 323.896 37.0308C324.742 36.9283 324.998 37.0943 325.04 37.8854C325.055 38.1733 324.955 38.3717 324.635 38.4314C324.321 38.4911 324.006 38.5533 323.69 38.6091C323.389 38.6622 323.089 38.7076 322.773 38.7582V46.3761V46.3735ZM321.118 38.9359H317.909V46.2049H321.118V38.9359Z" fill="#B398F2"/>
<path d="M229.01 95.5288C228.747 95.9465 228.452 96.3487 228.229 96.7842C227.884 97.4573 227.579 98.1495 227.279 98.8417C227.213 98.9949 227.222 99.1865 227.229 99.3589C227.251 99.9144 227.287 100.47 227.32 101.055C226.81 101.089 226.327 101.121 225.803 101.157C225.761 100.594 225.725 100.041 225.678 99.4904C225.594 98.5364 225.427 97.5978 225 96.7191C224.692 96.0882 224.275 95.5723 223.461 95.4944C223.216 95.4714 223.108 95.3283 223.198 95.0895C223.217 95.0384 223.234 94.9848 223.24 94.9312C223.36 93.9197 223.872 93.9695 224.611 94.3118C225.422 94.6872 225.974 95.3041 226.383 96.0473C226.462 96.1904 226.533 96.336 226.641 96.5403C226.825 96.2338 226.961 95.9554 227.145 95.7102C227.477 95.2683 227.789 94.7958 228.2 94.4254C228.955 93.7422 229.845 93.9005 230.352 94.7677C230.915 95.7293 231.076 96.7983 231.23 97.8659C231.25 98.009 231.273 98.152 231.295 98.304C233.149 97.6974 234.429 97.9515 235.298 99.0779C236.042 100.042 236.007 101.415 235.213 102.395C234.345 103.465 233.068 103.681 231.297 103.052C231.137 103.383 231.009 103.732 230.812 104.042C230.114 105.144 229.016 105.705 227.729 105.974C227.255 106.074 227.028 105.885 226.923 105.401C226.803 104.857 226.883 104.714 227.382 104.575C227.493 104.544 227.603 104.512 227.713 104.479C229.151 104.05 229.841 103.257 229.934 101.835C230.039 100.195 229.814 98.5722 229.536 96.9579C229.454 96.4803 229.309 96.0116 229.192 95.5391L229.012 95.5288H229.01ZM232.852 101.999C233.593 102.025 234.245 101.455 234.287 100.741C234.329 100.034 233.694 99.3985 232.923 99.3729C232.217 99.3499 231.544 99.9349 231.502 100.609C231.459 101.308 232.103 101.971 232.854 101.999H232.852Z" fill="#B398F2"/>
<path d="M27.0621 53.7752C27.8021 54.4466 28.5761 55.1477 29.3256 55.8281C28.9393 56.1992 28.5979 56.5266 28.232 56.8771C27.5219 56.1773 26.7697 55.4363 26.0093 54.6876C24.7197 55.9299 23.4954 57.1103 22.2521 58.3088C21.8427 57.8861 21.5135 57.5459 21.1666 57.1864C22.3623 56.06 23.5934 54.9002 24.8585 53.7082C24.0396 52.9659 23.2588 52.2584 22.4548 51.5303C22.9051 51.1437 23.2656 50.8331 23.6818 50.4748C24.3932 51.1707 25.1468 51.9066 25.9059 52.6489C27.5736 51.047 29.21 49.4748 30.8696 47.8807C30.2683 47.8111 29.6562 47.7441 29.0441 47.6706C28.4551 47.5998 27.8674 47.5057 27.2757 47.4567C26.9288 47.4271 26.8282 47.2557 26.8418 46.9709C26.8513 46.7789 26.8771 46.5868 26.8839 46.3948C26.8948 46.0868 27.0172 45.9631 27.3736 46.0095C28.6809 46.1809 29.9908 46.3252 31.3008 46.4786C31.9469 46.5546 32.5944 46.6294 33.3018 46.7106C33.5589 48.7106 33.8146 50.7068 34.0744 52.7365C33.6772 52.7803 33.2922 52.828 32.9059 52.8641C32.6121 52.8911 32.5482 52.712 32.5196 52.4788C32.3822 51.3872 32.2353 50.2957 32.0911 49.2055C32.083 49.1423 32.0707 49.0792 32.0625 49.0263C30.4098 50.5973 28.7693 52.1579 27.0648 53.7778L27.0621 53.7752Z" fill="#B398F2"/>
<path d="M99.5699 92.8084C98.8461 93.2644 98.1763 93.7046 97.4861 94.1149C96.9648 94.425 96.7027 94.3707 96.4012 93.9662C96.078 93.5317 96.1115 93.1901 96.5818 92.8785C97.7759 92.0852 98.9859 91.3162 100.25 90.5C100.557 91.1547 100.845 91.7664 101.161 92.4411C101.844 91.9565 102.495 91.5034 103.137 91.036C103.721 90.6101 104.017 90.6629 104.332 91.3033C104.499 91.6435 104.63 91.9994 104.805 92.4111C105.47 91.9422 106.108 91.4977 106.741 91.0446C107.403 90.5729 107.625 90.6172 107.953 91.3533C108.265 92.0509 108.556 92.757 108.824 93.4717C108.865 93.5817 108.766 93.7947 108.664 93.8919C108.55 94.0005 108.362 94.0391 108.202 94.0963C107.733 94.265 107.478 94.1749 107.245 93.7347C107.111 93.4788 107.014 93.2058 106.877 92.887C105.954 93.5403 105.051 94.1778 104.099 94.8524C103.823 94.2035 103.554 93.5674 103.266 92.8856C102.597 93.3602 101.958 93.8118 101.322 94.2664C100.739 94.6838 100.5 94.6409 100.154 94.0134C99.9485 93.6403 99.781 93.2487 99.5684 92.807L99.5699 92.8084Z" fill="#B398F2"/>
<path d="M104.797 97.3637C105.739 96.7276 106.628 96.1273 107.586 95.4812C107.829 96.0301 108.027 96.4689 108.216 96.912C108.366 97.2636 108.497 97.621 108.647 97.9726C108.931 98.6358 108.525 99.2133 107.788 99.1432C107.622 99.1275 107.423 98.9732 107.328 98.8274C107.149 98.5472 107.034 98.227 106.868 97.8711C106.23 98.3185 105.605 98.7587 104.978 99.1961C104.288 99.6764 104.02 99.6064 103.683 98.8502C103.546 98.5443 103.427 98.2313 103.275 97.8611C102.878 98.1413 102.508 98.4014 102.14 98.663C101.888 98.8416 101.645 99.0318 101.387 99.2004C100.791 99.5921 100.385 99.4934 100.07 98.8731C99.8986 98.5343 99.7574 98.1813 99.5783 97.7811C98.7701 98.2856 97.9809 98.7559 97.2193 99.2662C96.8931 99.4849 96.6951 99.4634 96.5232 99.1189C96.4548 98.9832 96.3572 98.8617 96.283 98.7287C96.0951 98.3871 96.1155 98.1055 96.4868 97.874C97.5877 97.1893 98.6784 96.4903 99.769 95.7914C100.081 95.5913 100.298 95.6856 100.451 95.9786C100.689 96.4346 100.918 96.8963 101.174 97.4037C101.867 96.9134 102.533 96.446 103.191 95.9729C103.749 95.5713 103.992 95.6227 104.308 96.2345C104.398 96.4103 104.467 96.5975 104.545 96.7805C104.622 96.9606 104.698 97.1407 104.794 97.3665L104.797 97.3637Z" fill="#B398F2"/>
</g>
<defs>
<clipPath id="clip0_1_436">
<rect width="344" height="109" fill="white"/>
</clipPath>
</defs>
</svg>
