<svg width="459" height="1553" viewBox="0 0 459 1553" fill="none" xmlns="http://www.w3.org/2000/svg">
<path d="M459 1553L459 0L-145.629 0L-145.629 1553H459Z" fill="url(#paint0_linear_0_84)"/>
<path opacity="0.12" d="M230.379 0C230.379 0 266.145 117.862 210.164 176.794C154.182 235.725 90.4161 294.656 99.7432 391.729C109.07 488.801 158.846 585.854 158.846 585.854C158.846 585.854 213.285 696.779 154.182 779.979C95.0797 863.178 -21.5651 994.914 -9.11666 1137.02C3.33181 1279.15 81.0889 1405.67 81.0889 1405.67C81.0889 1405.67 132.407 1494.07 99.7432 1553H283.257C283.257 1553 256.818 1454.21 336.136 1364.07C415.453 1273.94 384.351 1088.49 297.248 981.02C210.145 873.552 502.538 748.753 438.771 573.699C375.005 398.645 291.024 331.038 376.566 209.717C462.108 88.3967 356.351 0 356.351 0H230.379Z" fill="#572D9D" fill-opacity="0.6"/>
<path d="M-142.567 108C-142.567 108 -87.4397 116.698 -51.044 168.932C-14.6483 221.166 -55.2067 336.821 -72.8888 376.613C-90.5709 416.405 -96.8149 495.989 -59.3693 581.805C-21.9238 667.599 56.0801 703.67 56.0801 703.67C56.0801 703.67 178.823 754.648 177.773 883.978C176.724 1013.31 44.7989 1090.77 44.7989 1090.77C44.7989 1090.77 -17.4874 1136.57 32.154 1308.04C58.1614 1453.53 -71.8573 1485.86 -71.8573 1485.86C-71.8573 1485.86 -143.617 1494.56 -143.617 1553L-142.586 108H-142.567Z" fill="#2E116B"/>
<path opacity="0.41" d="M-144.949 147C-144.949 147 -81.813 161.669 -52.274 246.228C-22.7214 330.788 -28.0909 471.729 -28.0909 471.729C-28.0909 471.729 -29.4299 609.286 -1.89253 706.244C25.6448 803.202 47.1364 944.142 24.9686 1073.8C2.80074 1203.45 -28.7536 1273.37 -44.8757 1297.05C-60.9977 1320.73 -101.966 1401.91 -113.381 1454.91C-124.796 1507.9 -138.24 1541.71 -145.625 1553L-144.949 147Z" fill="url(#paint1_linear_0_84)"/>
<path d="M-83.3026 85.5029C-83.3026 85.5029 -85.3828 31.4486 19.6239 45.2575C124.631 59.0664 192.193 130.372 192.193 130.372C192.193 130.372 214.026 148.784 202.594 169.477C191.162 190.17 130.871 197.074 140.223 251.128C149.575 305.183 115.279 313.228 115.279 313.228C115.279 313.228 89.2848 327.037 67.4513 277.565C45.6179 228.114 20.6733 157.949 -38.5863 128.05C-38.5863 128.05 -85.3644 108.497 -83.2842 85.5029H-83.3026Z" fill="#280B65" fill-opacity="0.53"/>
<path opacity="0.6" d="M55.6792 0C55.6792 0 8.72193 63.3669 83.861 125.571C159 187.775 199.693 214.276 198.658 296.086C197.623 377.876 197.623 412.456 216.398 440.1C235.174 467.744 253.968 518.442 205.957 557.613C157.947 596.784 110.989 639.402 113.078 697.016C115.166 754.63 170.476 799.554 170.476 799.554C170.476 799.554 230.998 836.419 224.733 913.618C218.468 990.817 251.861 1031.13 280.043 1073.75C308.225 1116.37 323.877 1148.64 322.824 1211.99C321.789 1275.36 232.032 1404.4 208.027 1460.85C184.022 1517.3 186.128 1553 186.128 1553H365.106C365.106 1553 318.148 1364.63 371.37 1226.39C400.589 1136.6 323.604 995.926 264.136 871.497C204.668 747.069 496.608 459.115 388.594 269.014C388.594 269.014 358.86 215.439 313.455 179.145C268.068 142.851 300.925 39.1709 228.928 1.14258L55.6977 0H55.6792Z" fill="url(#paint2_linear_0_84)"/>
<path opacity="0.42" d="M23.8598 757.007C23.8598 757.007 14.7899 756.236 12.694 770.768C10.5981 785.301 13.3988 799.042 25.9557 796.748C38.5125 794.455 35.7304 757.961 23.8598 757.007Z" fill="#5B249D"/>
<path d="M180.834 428.646C180.834 428.646 180.98 424.726 184.476 425.015C187.972 425.305 187.827 429.08 187.827 429.08C187.827 429.08 187.681 432.855 183.895 433C183.895 433 180.399 433 180.834 428.646Z" fill="#5B249D"/>
<path d="M110.53 1299.65C110.53 1299.65 110.675 1295.73 114.171 1296.02C117.667 1296.3 117.522 1300.08 117.522 1300.08C117.522 1300.08 117.377 1303.86 113.59 1304C113.59 1304 110.094 1304 110.53 1299.65Z" fill="#C598FA"/>
<path d="M363.624 1041.65C363.624 1041.65 363.769 1037.73 367.265 1038.02C370.761 1038.3 370.616 1042.08 370.616 1042.08C370.616 1042.08 370.47 1045.86 366.684 1046C366.684 1046 363.188 1046 363.624 1041.65Z" fill="#C598FA"/>
<path d="M272.217 1149.82C272.217 1149.82 272.3 1147.86 274.298 1148.01C276.295 1148.15 276.212 1150.04 276.212 1150.04C276.212 1150.04 276.129 1151.93 273.966 1152C273.966 1152 271.968 1152 272.217 1149.82Z" fill="#C598FA"/>
<path d="M99.459 1055.82C99.459 1055.82 99.5419 1053.86 101.54 1054.01C103.537 1054.15 103.454 1056.04 103.454 1056.04C103.454 1056.04 103.372 1057.93 101.208 1058C101.208 1058 99.21 1058 99.459 1055.82Z" fill="#C598FA"/>
<path d="M96.4512 107.823C96.4512 107.823 96.5341 105.863 98.5319 106.008C100.53 106.152 100.447 108.04 100.447 108.04C100.447 108.04 100.364 109.928 98.2 110C98.2 110 96.2022 110 96.4512 107.823Z" fill="#C598FA"/>
<path d="M211.881 509.493C235.265 599.5 284.955 602.909 306.877 593.363C347.066 581.089 379.95 456.309 316.011 380.622C252.072 304.935 182.652 396.986 211.881 509.493Z" fill="#270D66" fill-opacity="0.66"/>
<defs>
<linearGradient id="paint0_linear_0_84" x1="459" y1="776.5" x2="-145.629" y2="776.5" gradientUnits="userSpaceOnUse">
<stop stop-color="#260C65"/>
<stop offset="1" stop-color="#37157D"/>
</linearGradient>
<linearGradient id="paint1_linear_0_84" x1="-145.625" y1="850" x2="142.781" y2="849.284" gradientUnits="userSpaceOnUse">
<stop stop-color="#572D9D"/>
<stop offset="1" stop-color="#572D9D" stop-opacity="0"/>
</linearGradient>
<linearGradient id="paint2_linear_0_84" x1="279.685" y1="1553" x2="279.685" y2="5.78537e-06" gradientUnits="userSpaceOnUse">
<stop stop-color="#3B1689"/>
<stop offset="1" stop-color="#280B65"/>
</linearGradient>
</defs>
</svg>
