<svg width="220" height="1137" viewBox="0 0 220 1137" fill="none" xmlns="http://www.w3.org/2000/svg">
<path d="M145.328 1118.36L145.328 0.000976562L-288.412 0.000976562L-288.412 1118.36H145.328Z" fill="url(#paint0_linear_1_989)"/>
<path opacity="0.12" d="M-18.658 0.00146484C-18.658 0.00146484 7.00305 84.8774 -33.1614 127.315C-73.3259 169.753 -119.076 212.191 -112.384 282.096C-105.692 352.001 -69.98 421.891 -69.98 421.891C-69.98 421.891 -30.922 501.771 -73.3259 561.685C-115.73 621.6 -199.418 716.466 -190.487 818.803C-181.555 921.156 -125.768 1012.26 -125.768 1012.26C-125.768 1012.26 -88.9491 1075.92 -112.384 1118.36H19.2803C19.2803 1118.36 0.311142 1047.22 57.2185 982.307C114.126 917.398 91.8109 783.851 29.3181 706.461C-33.1746 629.07 176.605 539.199 130.856 413.138C85.1058 287.077 24.8525 238.391 86.2255 151.025C147.599 63.6584 71.722 0.00146484 71.722 0.00146484H-18.658Z" fill="#572D9D" fill-opacity="0.6"/>
<path opacity="0.6" d="M-143.961 0.00146484C-143.961 0.00146484 -177.603 45.6338 -123.771 90.4286C-69.9391 135.223 -40.7856 154.308 -41.527 213.221C-42.2684 272.12 -42.2684 297.023 -28.817 316.93C-15.3656 336.837 -1.901 373.346 -36.2974 401.554C-70.6937 429.762 -104.335 460.453 -102.839 501.942C-101.343 543.431 -61.7173 575.782 -61.7173 575.782C-61.7173 575.782 -18.3578 602.33 -22.846 657.923C-27.3342 713.516 -3.41032 742.547 16.78 773.238C36.9703 803.929 48.1842 827.171 47.4296 872.788C46.6881 918.421 -17.6164 1011.35 -34.8145 1052C-52.0127 1092.65 -50.5034 1118.36 -50.5034 1118.36H77.7216C77.7216 1118.36 44.08 982.711 82.2099 883.161C103.143 818.501 47.9887 717.195 5.38379 627.591C-37.2211 537.986 171.934 330.622 94.5491 193.726C94.5491 193.726 73.2467 155.145 40.7171 129.009C8.20076 102.872 31.7407 28.2095 -19.8406 0.824219L-143.948 0.00146484H-143.961Z" fill="url(#paint1_linear_1_989)"/>
<path d="M77.0125 750.218C77.0125 750.218 77.1211 747.334 79.7354 747.547C82.3498 747.76 82.2412 750.538 82.2412 750.538C82.2412 750.538 82.1326 753.315 79.3011 753.422C79.3011 753.422 76.6867 753.422 77.0125 750.218Z" fill="#4E1C89"/>
<path d="M11.2797 828.34C11.2797 828.34 11.334 826.897 12.6411 827.004C13.9483 827.11 13.894 828.499 13.894 828.499C13.894 828.499 13.8397 829.888 12.424 829.941C12.424 829.941 11.1168 829.941 11.2797 828.34Z" fill="#C598FA"/>
<path d="M-31.0959 366.737C-14.2721 431.484 21.4786 433.936 37.251 427.069C66.166 418.24 89.8256 328.477 43.8228 274.031C-2.1799 219.585 -52.1257 285.803 -31.0959 366.737Z" fill="#270D66" fill-opacity="0.66"/>
<rect width="220" height="319" transform="matrix(-1 0 0 1 220 799)" fill="url(#paint2_linear_1_989)"/>
<rect width="220" height="106" transform="matrix(1 0 0 -1 0 106)" fill="url(#paint3_linear_1_989)"/>
<defs>
<linearGradient id="paint0_linear_1_989" x1="145.328" y1="559.18" x2="-288.412" y2="559.18" gradientUnits="userSpaceOnUse">
<stop stop-color="#260C65"/>
<stop offset="1" stop-color="#37157D"/>
</linearGradient>
<linearGradient id="paint1_linear_1_989" x1="16.5235" y1="1118.36" x2="16.5235" y2="0.00146901" gradientUnits="userSpaceOnUse">
<stop stop-color="#3B1689"/>
<stop offset="1" stop-color="#280B65"/>
</linearGradient>
<linearGradient id="paint2_linear_1_989" x1="101.507" y1="116.123" x2="102.634" y2="319.003" gradientUnits="userSpaceOnUse">
<stop stop-color="#260C65" stop-opacity="0"/>
<stop offset="1" stop-color="#260C65"/>
</linearGradient>
<linearGradient id="paint3_linear_1_989" x1="101.507" y1="38.5862" x2="101.632" y2="106.003" gradientUnits="userSpaceOnUse">
<stop stop-color="#260C65" stop-opacity="0"/>
<stop offset="1" stop-color="#260C65"/>
</linearGradient>
</defs>
</svg>
