<svg width="335" height="1139" viewBox="0 0 335 1139" fill="none" xmlns="http://www.w3.org/2000/svg">
<g clip-path="url(#clip0_1_66)">
<path d="M335 1139.31L335 -147.203L-258.774 -147.203L-258.774 1139.31H335Z" fill="url(#paint0_linear_1_66)"/>
<path opacity="0.12" d="M110.516 -147.202C110.516 -147.202 145.645 -49.5645 90.6613 -0.745605C35.6775 48.0734 -26.9523 96.8921 -17.7914 177.308C-8.63045 257.723 40.258 338.122 40.258 338.122C40.258 338.122 93.7269 430.013 35.6775 498.936C-22.3718 567.859 -136.938 676.989 -124.711 794.714C-112.485 912.455 -36.1133 1017.26 -36.1133 1017.26C-36.1133 1017.26 14.29 1090.49 -17.7914 1139.31H162.452C162.452 1139.31 136.484 1057.47 214.388 982.802C292.292 908.133 261.744 754.506 176.193 665.479C90.6432 576.453 377.825 473.069 315.195 328.053C252.565 183.037 170.08 127.031 254.098 26.5286C338.115 -73.9739 234.243 -147.202 234.243 -147.202H110.516Z" fill="#572D9D" fill-opacity="0.6"/>
<path d="M-255.971 -57.7201C-255.971 -57.7201 -201.923 -51.0443 -166.241 -10.9559C-130.559 29.1324 -170.322 117.895 -187.658 148.434C-204.993 178.974 -211.115 240.053 -174.403 305.915C-137.692 371.76 -61.2165 399.443 -61.2165 399.443C-61.2165 399.443 59.1212 438.568 58.0919 537.826C57.0627 637.083 -37.7593 707.711 -37.7593 707.711C-37.7593 707.711 -110.153 751.619 -84.6737 863.282C-59.1759 974.945 -186.647 999.755 -186.647 999.755C-186.647 999.755 -257 1006.43 -257 1051.29L-255.989 -57.7201H-255.971Z" fill="#2E116B"/>
<path d="M-197.546 -76.9527C-197.546 -76.9527 -199.586 -121.807 -96.5841 -110.348C6.41805 -98.8897 72.6905 -39.7205 72.6905 -39.7205C72.6905 -39.7205 94.1071 -24.4423 82.8932 -7.27119C71.6792 9.89989 12.5397 15.6292 21.7131 60.4835C30.8865 105.338 -2.75536 112.014 -2.75536 112.014C-2.75536 112.014 -28.2531 123.472 -49.6697 82.4207C-71.0864 41.3858 -95.5548 -16.837 -153.683 -41.6472C-153.683 -41.6472 -199.568 -57.8719 -197.528 -76.9527H-197.546Z" fill="#280B65" fill-opacity="0.53"/>
<path opacity="0.6" d="M-61.0213 -147.202C-61.0213 -147.202 -107.076 -94.7087 -33.3815 -43.1786C40.3126 8.35156 80.2226 30.3055 79.2077 98.0771C78.1927 165.832 78.1927 194.479 96.6072 217.379C115.022 240.279 133.454 282.278 86.3669 314.727C39.2795 347.176 -6.7748 382.482 -4.72674 430.209C-2.67867 477.937 51.5679 515.152 51.5679 515.152C51.5679 515.152 110.926 545.691 104.781 609.644C98.6371 673.596 131.388 706.991 159.028 742.297C186.668 777.602 202.019 804.339 200.986 856.816C199.971 909.309 111.94 1016.21 88.3968 1062.97C64.8531 1109.73 66.9193 1139.31 66.9193 1139.31H242.455C242.455 1139.31 196.4 983.267 248.599 868.748C300.797 754.229 303.861 611.063 245.536 507.986C187.211 404.909 371.428 233.13 265.491 75.65C265.491 75.65 236.329 31.2689 191.797 1.20264C147.283 -28.8636 179.508 -114.753 108.896 -146.256L-61.0032 -147.202H-61.0213Z" fill="url(#paint1_linear_1_66)"/>
<path d="M61.5463 207.981C61.5463 207.981 61.6949 204.663 65.2739 204.908C68.8529 205.153 68.7042 208.348 68.7042 208.348C68.7042 208.348 68.5556 211.543 64.6793 211.666C64.6793 211.666 61.1003 211.666 61.5463 207.981Z" fill="#C598FA"/>
<path d="M-6.82872 929.109C-6.82872 929.109 -6.68008 925.792 -3.10111 926.037C0.477853 926.282 0.329204 929.477 0.329204 929.477C0.329204 929.477 0.180558 932.672 -3.6957 932.795C-3.6957 932.795 -7.27467 932.795 -6.82872 929.109Z" fill="#C598FA"/>
<path d="M241.484 715.818C241.484 715.818 241.632 712.501 245.211 712.746C248.79 712.991 248.642 716.186 248.642 716.186C248.642 716.186 248.493 719.381 244.617 719.504C244.617 719.504 241.038 719.504 241.484 715.818Z" fill="#5D3092"/>
<path d="M151.496 805.685C151.496 805.685 151.57 804.026 153.36 804.148C155.149 804.271 155.075 805.868 155.075 805.868C155.075 805.868 155 807.466 153.062 807.527C153.062 807.527 151.273 807.527 151.496 805.685Z" fill="#C598FA"/>
<path d="M93.4808 274.674C116.512 349.156 165.453 351.978 187.045 344.078C226.629 333.921 259.018 230.662 196.042 168.029C133.066 105.396 64.6917 181.571 93.4808 274.674Z" fill="#270D66" fill-opacity="0.66"/>
<rect width="335" height="367" transform="matrix(-1 0 0 1 335 772)" fill="url(#paint2_linear_1_66)"/>
<rect x="335" y="367" width="335" height="367" transform="rotate(180 335 367)" fill="url(#paint3_linear_1_66)"/>
</g>
<defs>
<linearGradient id="paint0_linear_1_66" x1="335" y1="496.053" x2="-258.774" y2="496.053" gradientUnits="userSpaceOnUse">
<stop stop-color="#260C65"/>
<stop offset="1" stop-color="#37157D"/>
</linearGradient>
<linearGradient id="paint1_linear_1_66" x1="158.677" y1="1139.31" x2="158.677" y2="-147.202" gradientUnits="userSpaceOnUse">
<stop stop-color="#3B1689"/>
<stop offset="1" stop-color="#280B65"/>
</linearGradient>
<linearGradient id="paint2_linear_1_66" x1="154.568" y1="133.596" x2="155.548" y2="367.006" gradientUnits="userSpaceOnUse">
<stop stop-color="#260C65" stop-opacity="0"/>
<stop offset="1" stop-color="#260C65"/>
</linearGradient>
<linearGradient id="paint3_linear_1_66" x1="489.568" y1="500.596" x2="490.548" y2="734.006" gradientUnits="userSpaceOnUse">
<stop stop-color="#260C65" stop-opacity="0"/>
<stop offset="1" stop-color="#260C65"/>
</linearGradient>
<clipPath id="clip0_1_66">
<rect width="335" height="1139" fill="white" transform="matrix(-1 0 0 1 335 0)"/>
</clipPath>
</defs>
</svg>
