<svg width="340" height="1553" viewBox="0 0 340 1553" fill="none" xmlns="http://www.w3.org/2000/svg">
<path d="M339.25 1553L339.25 0.000976562L-263.004 0.000976562L-263.004 1553H339.25Z" fill="url(#paint0_linear_1_118)"/>
<path opacity="0.12" d="M111.56 0.000732422C111.56 0.000732422 147.191 117.863 91.4217 176.794C35.6528 235.725 -27.8715 294.656 -18.5797 391.729C-9.28791 488.802 40.2987 585.854 40.2987 585.854C40.2987 585.854 94.5312 696.78 35.6528 779.979C-23.2256 863.178 -139.428 994.914 -127.026 1137.02C-114.625 1279.15 -37.1632 1405.67 -37.1632 1405.67C-37.1632 1405.67 13.9598 1494.07 -18.5797 1553H164.238C164.238 1553 137.899 1454.21 216.916 1364.07C295.932 1273.94 264.947 1088.49 178.175 981.02C91.4035 873.553 382.686 748.754 319.162 573.7C255.637 398.645 171.975 331.038 257.192 209.718C342.409 88.3975 237.054 0.000732422 237.054 0.000732422H111.56Z" fill="#572D9D" fill-opacity="0.6"/>
<path d="M-260.307 108.103C-260.307 108.103 -205.449 116.801 -169.231 169.031C-133.013 221.261 -173.373 336.908 -190.969 376.697C-208.565 416.486 -214.778 496.065 -177.516 581.875C-140.253 667.663 -62.6306 703.73 -62.6306 703.73C-62.6306 703.73 59.5127 754.706 58.4679 884.026C57.4232 1013.35 -73.8566 1090.8 -73.8566 1090.8C-73.8566 1090.8 -135.838 1136.6 -86.4397 1308.06C-60.5594 1453.54 -189.943 1485.86 -189.943 1485.86C-189.943 1485.86 -261.352 1494.56 -261.352 1553L-260.325 108.103H-260.307Z" fill="#2E116B"/>
<path d="M-200.897 84.8025C-200.897 84.8025 -202.966 30.6572 -98.4932 44.4893C5.97995 58.3215 73.1988 129.747 73.1988 129.747C73.1988 129.747 94.9213 148.19 83.5472 168.918C72.1731 189.646 12.189 196.562 21.4934 250.707C30.7978 304.853 -3.32445 312.911 -3.32445 312.911C-3.32445 312.911 -29.1863 326.743 -50.9088 277.188C-72.6313 227.654 -97.4492 157.371 -156.408 127.421C-156.408 127.421 -202.948 107.836 -200.878 84.8025H-200.897Z" fill="#280B65" fill-opacity="0.53"/>
<path opacity="0.6" d="M-62.4277 0.000732422C-62.4277 0.000732422 -109.14 63.3677 -34.3932 125.572C40.3533 187.776 80.8333 214.277 79.8038 296.087C78.7744 377.876 78.7744 412.457 97.4518 440.101C116.129 467.745 134.825 518.443 87.0653 557.613C39.3055 596.784 -7.40652 639.403 -5.32921 697.016C-3.2519 754.63 51.7693 799.554 51.7693 799.554C51.7693 799.554 111.975 836.419 105.743 913.619C99.5107 990.818 132.729 1031.13 160.764 1073.75C188.798 1116.37 204.369 1148.64 203.321 1211.99C202.292 1275.36 113.004 1404.4 89.1242 1460.85C65.2443 1517.3 67.34 1553 67.34 1553H245.382C245.382 1553 198.67 1364.63 251.614 1226.39C280.68 1136.6 204.098 995.926 144.94 871.498C85.7827 747.069 376.198 459.115 268.747 269.014C268.747 269.014 239.169 215.44 194.001 179.146C148.852 142.852 181.537 39.1716 109.916 1.14331L-62.4094 0.000732422H-62.4277Z" fill="url(#paint1_linear_1_118)"/>
<path d="M244.391 1041.78C244.391 1041.78 244.541 1037.78 248.171 1038.07C251.801 1038.37 251.651 1042.23 251.651 1042.23C251.651 1042.23 251.5 1046.08 247.568 1046.23C247.568 1046.23 243.938 1046.23 244.391 1041.78Z" fill="#C598FA"/>
<path d="M153.121 1150.26C153.121 1150.26 153.196 1148.26 155.011 1148.41C156.827 1148.56 156.751 1150.49 156.751 1150.49C156.751 1150.49 156.676 1152.42 154.71 1152.49C154.71 1152.49 152.895 1152.49 153.121 1150.26Z" fill="#C598FA"/>
<path d="M94.2807 509.265C117.641 599.176 167.281 602.581 189.181 593.045C229.33 580.784 262.182 456.137 198.306 380.53C134.431 304.924 65.0805 396.877 94.2807 509.265Z" fill="#270D66" fill-opacity="0.66"/>
<defs>
<linearGradient id="paint0_linear_1_118" x1="339.25" y1="776.501" x2="-263.004" y2="776.501" gradientUnits="userSpaceOnUse">
<stop stop-color="#260C65"/>
<stop offset="1" stop-color="#37157D"/>
</linearGradient>
<linearGradient id="paint1_linear_1_118" x1="160.408" y1="1553" x2="160.408" y2="0.000738207" gradientUnits="userSpaceOnUse">
<stop stop-color="#3B1689"/>
<stop offset="1" stop-color="#280B65"/>
</linearGradient>
</defs>
</svg>
