<svg width="133" height="886" viewBox="0 0 133 886" fill="none" xmlns="http://www.w3.org/2000/svg">
<path d="M0 886.241L0 -114.506L462.621 -114.506L462.621 886.241H0Z" fill="url(#paint0_linear_1_944)"/>
<path opacity="0.12" d="M174.899 -114.505C174.899 -114.505 147.529 -38.5552 190.368 -0.580139C233.207 37.3948 282.003 75.3698 274.866 137.923C267.728 200.476 229.638 263.016 229.638 263.016C229.638 263.016 187.98 334.496 233.207 388.11C278.435 441.723 367.695 526.613 358.169 618.188C348.643 709.776 289.141 791.304 289.141 791.304C289.141 791.304 249.871 848.266 274.866 886.241H134.435C134.435 886.241 154.667 822.58 93.9702 764.497C33.2736 706.414 57.0746 586.911 123.728 517.66C190.382 448.408 -33.3662 367.988 15.4299 255.184C64.2261 142.38 128.491 98.814 63.0318 20.6357C-2.42783 -57.5427 78.501 -114.505 78.501 -114.505H174.899Z" fill="#572D9D" fill-opacity="0.6"/>
<path opacity="0.6" d="M308.559 -114.505C308.559 -114.505 344.441 -73.6718 287.024 -33.5878C229.608 6.49622 198.513 23.5736 199.304 76.2915C200.095 128.996 200.095 151.28 185.748 169.094C171.401 186.907 157.039 219.576 193.726 244.818C230.413 270.06 266.295 297.523 264.699 334.649C263.103 371.775 220.839 400.724 220.839 400.724C220.839 400.724 174.592 424.48 179.379 474.226C184.166 523.973 158.649 549.951 137.115 577.414C115.58 604.877 103.619 625.675 104.424 666.496C105.215 707.329 173.801 790.481 192.145 826.858C210.488 863.235 208.878 886.241 208.878 886.241H72.115C72.115 886.241 107.997 764.859 67.328 675.777C26.6591 586.696 24.2726 475.331 69.7144 395.15C115.156 314.968 -28.3709 181.346 54.1671 58.846C54.1671 58.846 76.888 24.3231 111.584 0.935181C146.265 -22.4526 121.158 -89.2637 176.174 -113.769L308.545 -114.505H308.559Z" fill="url(#paint1_linear_1_944)"/>
<path d="M72.8685 556.817C72.8685 556.817 72.7527 554.236 69.9642 554.427C67.1758 554.617 67.2916 557.103 67.2916 557.103C67.2916 557.103 67.4074 559.588 70.4275 559.684C70.4275 559.684 73.2159 559.684 72.8685 556.817Z" fill="#5D3092"/>
<path d="M188.173 213.662C170.228 271.6 132.097 273.795 115.275 267.65C84.4343 259.749 59.1993 179.426 108.265 130.706C157.331 81.9854 210.603 141.24 188.173 213.662Z" fill="#270D66" fill-opacity="0.66"/>
<defs>
<linearGradient id="paint0_linear_1_944" x1="0" y1="385.867" x2="462.621" y2="385.867" gradientUnits="userSpaceOnUse">
<stop stop-color="#260C65"/>
<stop offset="1" stop-color="#37157D"/>
</linearGradient>
<linearGradient id="paint1_linear_1_944" x1="137.388" y1="886.241" x2="137.388" y2="-114.505" gradientUnits="userSpaceOnUse">
<stop stop-color="#3B1689"/>
<stop offset="1" stop-color="#280B65"/>
</linearGradient>
</defs>
</svg>
