<svg width="411" height="1565" viewBox="0 0 411 1565" fill="none" xmlns="http://www.w3.org/2000/svg">
<path d="M71.75 1553L71.75 0.000976562L674.004 0.000976562L674.004 1553H71.75Z" fill="url(#paint0_linear_1_139)"/>
<path opacity="0.12" d="M299.44 0.000732422C299.44 0.000732422 263.809 117.863 319.578 176.794C375.347 235.725 438.871 294.656 429.58 391.729C420.288 488.802 370.701 585.854 370.701 585.854C370.701 585.854 316.469 696.78 375.347 779.979C434.226 863.178 550.428 994.914 538.026 1137.02C525.625 1279.15 448.163 1405.67 448.163 1405.67C448.163 1405.67 397.04 1494.07 429.58 1553H246.762C246.762 1553 273.101 1454.21 194.084 1364.07C115.068 1273.94 146.053 1088.49 232.825 981.02C319.597 873.553 28.3141 748.754 91.8383 573.7C155.363 398.645 239.025 331.038 153.808 209.718C68.5906 88.3975 173.946 0.000732422 173.946 0.000732422H299.44Z" fill="#572D9D" fill-opacity="0.6"/>
<path d="M671.307 108.103C671.307 108.103 616.449 116.801 580.231 169.031C544.013 221.261 584.373 336.908 601.969 376.697C619.565 416.486 625.778 496.065 588.516 581.875C551.253 667.663 473.631 703.73 473.631 703.73C473.631 703.73 351.487 754.706 352.532 884.026C353.577 1013.35 484.857 1090.8 484.857 1090.8C484.857 1090.8 546.838 1136.6 497.44 1308.06C471.559 1453.54 600.943 1485.86 600.943 1485.86C600.943 1485.86 672.352 1494.56 672.352 1553L671.325 108.103H671.307Z" fill="#2E116B"/>
<path d="M611.897 84.8025C611.897 84.8025 613.966 30.6572 509.493 44.4893C405.02 58.3215 337.801 129.747 337.801 129.747C337.801 129.747 316.079 148.19 327.453 168.918C338.827 189.646 398.811 196.562 389.507 250.707C380.202 304.853 414.324 312.911 414.324 312.911C414.324 312.911 440.186 326.743 461.909 277.188C483.631 227.654 508.449 157.371 567.408 127.421C567.408 127.421 613.948 107.836 611.878 84.8025H611.897Z" fill="#280B65" fill-opacity="0.53"/>
<path opacity="0.6" d="M473.428 0.000732422C473.428 0.000732422 520.14 63.3677 445.393 125.572C370.647 187.776 330.167 214.277 331.196 296.087C332.226 377.876 332.226 412.457 313.548 440.101C294.871 467.745 276.175 518.443 323.935 557.613C371.695 596.784 418.407 639.403 416.329 697.016C414.252 754.63 359.231 799.554 359.231 799.554C359.231 799.554 299.025 836.419 305.257 913.619C311.489 990.818 278.271 1031.13 250.236 1073.75C222.202 1116.37 206.631 1148.64 207.679 1211.99C208.708 1275.36 297.996 1404.4 321.876 1460.85C345.756 1517.3 343.66 1553 343.66 1553H165.618C165.618 1553 212.33 1364.63 159.386 1226.39C130.32 1136.6 206.902 995.926 266.06 871.498C325.217 747.069 34.8022 459.115 142.253 269.014C142.253 269.014 171.831 215.44 216.999 179.146C262.148 142.852 229.463 39.1716 301.084 1.14331L473.409 0.000732422H473.428Z" fill="url(#paint1_linear_1_139)"/>
<path d="M166.609 1041.78C166.609 1041.78 166.459 1037.78 162.829 1038.07C159.199 1038.37 159.349 1042.23 159.349 1042.23C159.349 1042.23 159.5 1046.08 163.432 1046.23C163.432 1046.23 167.062 1046.23 166.609 1041.78Z" fill="#C598FA"/>
<path d="M257.879 1150.26C257.879 1150.26 257.804 1148.26 255.989 1148.41C254.173 1148.56 254.249 1150.49 254.249 1150.49C254.249 1150.49 254.324 1152.41 256.29 1152.49C256.29 1152.49 258.105 1152.49 257.879 1150.26Z" fill="#C598FA"/>
<path d="M316.719 509.265C293.359 599.176 243.719 602.581 221.819 593.045C181.67 580.784 148.818 456.137 212.694 380.53C276.569 304.924 345.919 396.877 316.719 509.265Z" fill="#270D66" fill-opacity="0.66"/>
<rect y="1185" width="411" height="380" fill="url(#paint2_linear_1_139)"/>
<rect width="411" height="293" transform="matrix(1 0 0 -1 0 293)" fill="url(#paint3_linear_1_139)"/>
<defs>
<linearGradient id="paint0_linear_1_139" x1="71.75" y1="776.501" x2="674.004" y2="776.501" gradientUnits="userSpaceOnUse">
<stop stop-color="#260C65"/>
<stop offset="1" stop-color="#37157D"/>
</linearGradient>
<linearGradient id="paint1_linear_1_139" x1="250.592" y1="1553" x2="250.592" y2="0.000738207" gradientUnits="userSpaceOnUse">
<stop stop-color="#3B1689"/>
<stop offset="1" stop-color="#280B65"/>
</linearGradient>
<linearGradient id="paint2_linear_1_139" x1="189.634" y1="1323.33" x2="190.49" y2="1565.01" gradientUnits="userSpaceOnUse">
<stop stop-color="#260C65" stop-opacity="0"/>
<stop offset="1" stop-color="#260C65"/>
</linearGradient>
<linearGradient id="paint3_linear_1_139" x1="189.634" y1="106.658" x2="190.143" y2="293.007" gradientUnits="userSpaceOnUse">
<stop stop-color="#260C65" stop-opacity="0"/>
<stop offset="1" stop-color="#260C65"/>
</linearGradient>
</defs>
</svg>
