<svg width="319" height="1007" viewBox="0 0 319 1007" fill="none" xmlns="http://www.w3.org/2000/svg">
<path d="M0 1091.3L0 -141L568.96 -141L568.96 1091.3H0Z" fill="url(#paint0_linear_1_42)"/>
<path opacity="0.12" d="M215.102 -140.999C215.102 -140.999 181.441 -47.4762 234.127 -0.714722C286.813 46.0469 346.826 92.8083 338.048 169.835C329.269 246.862 282.424 323.872 282.424 323.872C282.424 323.872 231.19 411.891 286.813 477.909C342.437 543.927 452.215 648.459 440.499 761.222C428.783 874.002 355.604 974.393 355.604 974.393C355.604 974.393 307.307 1044.54 338.048 1091.3H165.337C165.337 1091.3 190.219 1012.91 115.571 941.384C40.9226 869.862 70.1945 722.709 152.169 637.434C234.145 552.159 -41.0352 453.132 18.9773 314.227C78.9898 175.323 158.027 121.677 77.521 25.41C-2.98523 -70.8571 96.5461 -140.999 96.5461 -140.999H215.102Z" fill="#572D9D" fill-opacity="0.6"/>
<path d="M566.272 -55.2878C566.272 -55.2878 514.483 -48.8934 480.292 -10.4944C446.101 27.9045 484.202 112.926 500.813 142.179C517.425 171.431 523.29 229.936 488.113 293.023C452.935 356.093 379.656 382.609 379.656 382.609C379.656 382.609 264.348 420.086 265.334 515.16C266.32 610.235 357.179 677.887 357.179 677.887C357.179 677.887 426.548 719.944 402.133 826.901C377.701 933.858 499.844 957.623 499.844 957.623C499.844 957.623 567.258 964.017 567.258 1006.98L566.289 -55.2878H566.272Z" fill="#2E116B"/>
<path d="M510.29 -73.7095C510.29 -73.7095 512.245 -116.674 413.548 -105.698C314.85 -94.722 251.347 -38.0463 251.347 -38.0463C251.347 -38.0463 230.826 -23.412 241.571 -6.96452C252.316 9.48294 308.984 14.9708 300.194 57.9349C291.404 100.899 323.64 107.293 323.64 107.293C323.64 107.293 348.072 118.269 368.594 78.9475C389.115 39.642 412.561 -16.1272 468.26 -39.8918C468.26 -39.8918 512.228 -55.4328 510.273 -73.7095H510.29Z" fill="#280B65" fill-opacity="0.53"/>
<path opacity="0.6" d="M379.475 -140.999C379.475 -140.999 423.604 -90.718 352.99 -41.3595C282.376 7.99915 244.133 29.0278 245.106 93.9434C246.079 158.843 246.079 186.282 228.434 208.218C210.789 230.153 193.126 270.381 238.246 301.463C283.366 332.545 327.495 366.362 325.533 412.079C323.57 457.795 271.591 493.442 271.591 493.442C271.591 493.442 214.714 522.694 220.601 583.951C226.489 645.208 195.106 677.197 168.622 711.014C142.137 744.832 127.427 770.442 128.417 820.707C129.389 870.988 213.741 973.38 236.301 1018.17C258.861 1062.97 256.881 1091.3 256.881 1091.3H88.6812C88.6812 1091.3 132.811 941.829 82.7938 832.136C32.7767 722.443 29.8416 585.311 85.7287 486.578C141.616 387.845 -34.9026 223.305 66.6077 72.4614C66.6077 72.4614 94.5512 29.9507 137.222 1.15137C179.875 -27.6478 148.997 -109.917 216.659 -140.093L379.457 -140.999H379.475Z" fill="url(#paint1_linear_1_42)"/>
<path d="M262.026 199.215C262.026 199.215 261.883 196.037 258.454 196.272C255.024 196.506 255.167 199.567 255.167 199.567C255.167 199.567 255.309 202.628 259.024 202.745C259.024 202.745 262.453 202.745 262.026 199.215Z" fill="#C598FA"/>
<path d="M89.6116 685.652C89.6116 685.652 89.4691 682.474 86.0398 682.708C82.6104 682.943 82.7528 686.004 82.7528 686.004C82.7528 686.004 82.8952 689.064 86.6095 689.182C86.6095 689.182 90.0389 689.182 89.6116 685.652Z" fill="#5D3092"/>
<path d="M175.833 771.731C175.833 771.731 175.762 770.142 174.047 770.259C172.333 770.377 172.404 771.907 172.404 771.907C172.404 771.907 172.475 773.437 174.332 773.496C174.332 773.496 176.047 773.496 175.833 771.731Z" fill="#C598FA"/>
<path d="M231.427 263.099C209.359 334.442 162.463 337.145 141.773 329.578C103.844 319.849 72.8083 220.942 133.153 160.948C193.497 100.955 259.013 173.919 231.427 263.099Z" fill="#270D66" fill-opacity="0.66"/>
<defs>
<linearGradient id="paint0_linear_1_42" x1="0" y1="475.148" x2="568.96" y2="475.148" gradientUnits="userSpaceOnUse">
<stop stop-color="#260C65"/>
<stop offset="1" stop-color="#37157D"/>
</linearGradient>
<linearGradient id="paint1_linear_1_42" x1="168.958" y1="1091.3" x2="168.958" y2="-140.999" gradientUnits="userSpaceOnUse">
<stop stop-color="#3B1689"/>
<stop offset="1" stop-color="#280B65"/>
</linearGradient>
</defs>
</svg>
