<svg width="340" height="1553" viewBox="0 0 340 1553" fill="none" xmlns="http://www.w3.org/2000/svg">
<path d="M0.75 1553L0.75 0.000976562L603.004 0.000976562L603.004 1553H0.75Z" fill="url(#paint0_linear_1_140)"/>
<path opacity="0.12" d="M228.44 0.000732422C228.44 0.000732422 192.809 117.863 248.578 176.794C304.347 235.725 367.871 294.656 358.58 391.729C349.288 488.802 299.701 585.854 299.701 585.854C299.701 585.854 245.469 696.78 304.347 779.979C363.226 863.178 479.428 994.914 467.026 1137.02C454.625 1279.15 377.163 1405.67 377.163 1405.67C377.163 1405.67 326.04 1494.07 358.58 1553H175.762C175.762 1553 202.101 1454.21 123.084 1364.07C44.0678 1273.94 75.0526 1088.49 161.825 981.02C248.597 873.553 -42.6859 748.754 20.8383 573.7C84.3626 398.645 168.025 331.038 82.8079 209.718C-2.40939 88.3975 102.946 0.000732422 102.946 0.000732422H228.44Z" fill="#572D9D" fill-opacity="0.6"/>
<path d="M600.307 108.103C600.307 108.103 545.449 116.801 509.231 169.031C473.013 221.261 513.373 336.908 530.969 376.697C548.565 416.486 554.778 496.065 517.516 581.875C480.253 667.663 402.631 703.73 402.631 703.73C402.631 703.73 280.487 754.706 281.532 884.026C282.577 1013.35 413.857 1090.8 413.857 1090.8C413.857 1090.8 475.838 1136.6 426.44 1308.06C400.559 1453.54 529.943 1485.86 529.943 1485.86C529.943 1485.86 601.352 1494.56 601.352 1553L600.325 108.103H600.307Z" fill="#2E116B"/>
<path d="M540.897 84.8025C540.897 84.8025 542.966 30.6572 438.493 44.4893C334.02 58.3215 266.801 129.747 266.801 129.747C266.801 129.747 245.079 148.19 256.453 168.918C267.827 189.646 327.811 196.562 318.507 250.707C309.202 304.853 343.324 312.911 343.324 312.911C343.324 312.911 369.186 326.743 390.909 277.188C412.631 227.654 437.449 157.371 496.408 127.421C496.408 127.421 542.948 107.836 540.878 84.8025H540.897Z" fill="#280B65" fill-opacity="0.53"/>
<path opacity="0.6" d="M402.428 0.000732422C402.428 0.000732422 449.14 63.3677 374.393 125.572C299.647 187.776 259.167 214.277 260.196 296.087C261.226 377.876 261.226 412.457 242.548 440.101C223.871 467.745 205.175 518.443 252.935 557.613C300.695 596.784 347.407 639.403 345.329 697.016C343.252 754.63 288.231 799.554 288.231 799.554C288.231 799.554 228.025 836.419 234.257 913.619C240.489 990.818 207.271 1031.13 179.236 1073.75C151.202 1116.37 135.631 1148.64 136.679 1211.99C137.708 1275.36 226.996 1404.4 250.876 1460.85C274.756 1517.3 272.66 1553 272.66 1553H94.6178C94.6178 1553 141.33 1364.63 88.3859 1226.39C59.3198 1136.6 135.902 995.926 195.06 871.498C254.217 747.069 -36.1978 459.115 71.2526 269.014C71.2526 269.014 100.831 215.44 145.999 179.146C191.148 142.852 158.463 39.1716 230.084 1.14331L402.409 0.000732422H402.428Z" fill="url(#paint1_linear_1_140)"/>
<path d="M95.6094 1041.78C95.6094 1041.78 95.4587 1037.78 91.8286 1038.07C88.1985 1038.37 88.3493 1042.23 88.3493 1042.23C88.3493 1042.23 88.5 1046.08 92.4317 1046.23C92.4317 1046.23 96.0617 1046.23 95.6094 1041.78Z" fill="#C598FA"/>
<path d="M186.879 1150.26C186.879 1150.26 186.804 1148.26 184.989 1148.41C183.173 1148.56 183.249 1150.49 183.249 1150.49C183.249 1150.49 183.324 1152.41 185.29 1152.49C185.29 1152.49 187.105 1152.49 186.879 1150.26Z" fill="#C598FA"/>
<path d="M245.719 509.265C222.359 599.176 172.719 602.581 150.819 593.045C110.67 580.784 77.8181 456.137 141.694 380.53C205.569 304.924 274.919 396.877 245.719 509.265Z" fill="#270D66" fill-opacity="0.66"/>
<defs>
<linearGradient id="paint0_linear_1_140" x1="0.75" y1="776.501" x2="603.004" y2="776.501" gradientUnits="userSpaceOnUse">
<stop stop-color="#260C65"/>
<stop offset="1" stop-color="#37157D"/>
</linearGradient>
<linearGradient id="paint1_linear_1_140" x1="179.592" y1="1553" x2="179.592" y2="0.000738207" gradientUnits="userSpaceOnUse">
<stop stop-color="#3B1689"/>
<stop offset="1" stop-color="#280B65"/>
</linearGradient>
</defs>
</svg>
