<svg width="196" height="60" viewBox="0 0 196 60" fill="none" xmlns="http://www.w3.org/2000/svg">
<path d="M196 53.9856C196 57.3084 193.477 60 190.356 60H5.65144C2.53203 60 0 57.3084 0 53.9856V6.0223C0 2.701 2.53203 0 5.65144 0H190.354C193.477 0 195.999 2.701 195.999 6.0223L196 53.9856Z" fill="#24095F"/>
<path d="M49.7436 28.1716C49.7072 24.1967 53.0535 22.2629 53.2065 22.1729C51.3114 19.4559 48.3739 19.0847 47.3417 19.0551C44.8746 18.7998 42.4815 20.5067 41.2248 20.5067C39.943 20.5067 38.0077 19.0797 35.9219 19.1217C33.2378 19.1624 30.7268 20.6904 29.3497 23.0633C26.5076 27.9015 28.6272 35.0115 31.3502 38.9223C32.7123 40.8376 34.3039 42.9762 36.3872 42.9009C38.4253 42.8183 39.1867 41.6232 41.6462 41.6232C44.0832 41.6232 44.7981 42.9009 46.9228 42.8528C49.1102 42.8183 50.4873 40.9289 51.8018 38.9963C53.3758 36.801 54.008 34.6391 54.0331 34.5281C53.9816 34.5108 49.785 32.9359 49.7436 28.1716Z" fill="white"/>
<path d="M45.73 16.4824C46.8262 15.1344 47.5762 13.3005 47.368 11.4395C45.7814 11.5085 43.7972 12.5186 42.6546 13.837C41.6437 14.9988 40.7407 16.903 40.9739 18.6937C42.7562 18.8245 44.5861 17.8094 45.73 16.4824Z" fill="white"/>
<path d="M73.6333 16.0021C73.6333 17.4277 73.2058 18.5009 72.352 19.2216C71.5611 19.8866 70.4373 20.2197 68.9816 20.2197C68.2598 20.2197 67.6421 20.1882 67.125 20.1252V12.3356C67.7996 12.2266 68.5262 12.1709 69.311 12.1709C70.6976 12.1709 71.7428 12.4725 72.4476 13.0757C73.2372 13.7576 73.6333 14.7327 73.6333 16.0021ZM72.295 16.0372C72.295 15.113 72.0504 14.4044 71.5611 13.9103C71.0719 13.4173 70.3573 13.1702 69.4163 13.1702C69.0167 13.1702 68.6764 13.1968 68.3942 13.2525V19.1744C68.5504 19.1986 68.8362 19.2095 69.2516 19.2095C70.2229 19.2095 70.9726 18.9394 71.5006 18.3992C72.0286 17.8589 72.295 17.0716 72.295 16.0372Z" fill="white"/>
<path d="M81.5898 17.9715C81.5898 18.8346 81.3304 19.5418 80.8117 20.0965C80.2679 20.6668 79.5474 20.9513 78.6478 20.9513C77.7807 20.9513 77.0903 20.6787 76.5753 20.1311C76.0616 19.5846 75.8047 18.8953 75.8047 18.0644C75.8047 17.1953 76.0691 16.4822 76.6003 15.9286C77.1316 15.375 77.8458 15.0977 78.7455 15.0977C79.6126 15.0977 80.3092 15.3703 80.8368 15.9167C81.338 16.4477 81.5898 17.1334 81.5898 17.9715ZM80.2278 18.012C80.2278 17.4941 80.11 17.0501 79.8757 16.6798C79.6 16.2322 79.2079 16.0084 78.6979 16.0084C78.1704 16.0084 77.7694 16.2322 77.4937 16.6798C77.2582 17.0501 77.1416 17.5013 77.1416 18.0346C77.1416 18.5525 77.2594 18.9965 77.4937 19.3668C77.7782 19.8144 78.1741 20.0382 78.6853 20.0382C79.1865 20.0382 79.58 19.8108 79.8632 19.3549C80.1063 18.9775 80.2278 18.5299 80.2278 18.012Z" fill="white"/>
<path d="M90.9902 15.0977L89.1162 20.9513H87.8965L87.1202 18.4094C86.9232 17.7749 86.7631 17.1441 86.6386 16.5182H86.6145C86.4989 17.1615 86.3388 17.791 86.133 18.4094L85.3084 20.9513H84.0747L82.3125 15.0977H83.6809L84.358 17.8804C84.5219 18.5386 84.6566 19.1657 84.7646 19.7592H84.7888C84.8879 19.27 85.0517 18.6466 85.283 17.8929L86.133 15.0989H87.218L88.0324 17.8333C88.2293 18.5001 88.3894 19.1421 88.5127 19.7605H88.5495C88.6397 19.1582 88.7757 18.5162 88.9561 17.8333L89.6828 15.0989H90.9902V15.0977Z" fill="white"/>
<path d="M98.2182 20.9513H96.9344V17.6675C96.9344 16.6556 96.5472 16.1497 95.7705 16.1497C95.3895 16.1497 95.0821 16.2883 94.8432 16.5668C94.6067 16.8454 94.4867 17.1737 94.4867 17.5496V20.9501H93.2028V16.8563C93.2028 16.3528 93.1869 15.8067 93.1562 15.2156H94.2845L94.3446 16.112H94.3801C94.5296 15.8335 94.7525 15.6036 95.0453 15.42C95.3932 15.2059 95.7828 15.0977 96.2091 15.0977C96.7482 15.0977 97.1965 15.2704 97.553 15.617C97.9965 16.0414 98.2182 16.6751 98.2182 17.5167V20.9513Z" fill="white"/>
<path d="M101.837 20.9514H100.391V12.1709H101.837V20.9514Z" fill="white"/>
<path d="M109.066 17.9715C109.066 18.8346 108.807 19.5418 108.288 20.0965C107.744 20.6668 107.023 20.9513 106.124 20.9513C105.256 20.9513 104.566 20.6787 104.052 20.1311C103.538 19.5846 103.281 18.8953 103.281 18.0644C103.281 17.1953 103.546 16.4822 104.077 15.9286C104.608 15.375 105.322 15.0977 106.221 15.0977C107.089 15.0977 107.785 15.3703 108.313 15.9167C108.815 16.4477 109.066 17.1334 109.066 17.9715ZM107.703 18.012C107.703 17.4941 107.585 17.0501 107.351 16.6798C107.077 16.2322 106.683 16.0084 106.174 16.0084C105.646 16.0084 105.245 16.2322 104.97 16.6798C104.735 17.0501 104.618 17.5013 104.618 18.0346C104.618 18.5525 104.736 18.9965 104.97 19.3668C105.255 19.8144 105.651 20.0382 106.162 20.0382C106.663 20.0382 107.055 19.8108 107.338 19.3549C107.583 18.9775 107.703 18.5299 107.703 18.012Z" fill="white"/>
<path d="M116.296 20.8239H115.066L114.963 20.1775H114.926C114.504 20.693 113.904 20.9513 113.124 20.9513C112.542 20.9513 112.072 20.7811 111.717 20.443C111.395 20.1358 111.234 19.7537 111.234 19.3001C111.234 18.6144 111.548 18.0917 112.18 17.7298C112.811 17.3679 113.697 17.1905 114.839 17.1989V17.0941C114.839 16.3548 114.413 15.9858 113.559 15.9858C112.95 15.9858 112.414 16.1251 111.951 16.4012L111.673 15.5822C112.245 15.2596 112.953 15.0977 113.788 15.0977C115.399 15.0977 116.207 15.8715 116.207 17.4191V19.4858C116.207 20.0465 116.237 20.493 116.296 20.8239ZM114.873 18.8953V18.0298C113.361 18.006 112.605 18.3834 112.605 19.1608C112.605 19.4537 112.691 19.6727 112.868 19.8192C113.045 19.9656 113.27 20.0382 113.538 20.0382C113.839 20.0382 114.12 19.9513 114.376 19.7787C114.634 19.6049 114.792 19.3846 114.851 19.1144C114.865 19.0537 114.873 18.9799 114.873 18.8953Z" fill="white"/>
<path d="M123.527 20.8169H122.332L122.269 19.8651H122.231C121.85 20.5893 121.199 20.9514 120.285 20.9514C119.555 20.9514 118.947 20.671 118.465 20.1103C117.983 19.5496 117.742 18.8216 117.742 17.9278C117.742 16.9685 118.003 16.1915 118.528 15.5981C119.035 15.0449 119.658 14.7683 120.398 14.7683C121.212 14.7683 121.781 15.0361 122.105 15.573H122.131V12.1709H123.48V19.2202C123.48 19.7972 123.495 20.3291 123.527 20.8169ZM122.131 18.3175V17.3293C122.131 17.1583 122.118 17.02 122.094 16.9144C122.018 16.5976 121.855 16.3311 121.607 16.1161C121.356 15.9011 121.054 15.793 120.705 15.793C120.203 15.793 119.809 15.9878 119.52 16.3788C119.233 16.7698 119.088 17.269 119.088 17.8787C119.088 18.4646 119.226 18.9398 119.502 19.3057C119.794 19.6954 120.187 19.8903 120.68 19.8903C121.122 19.8903 121.476 19.7281 121.744 19.4025C122.004 19.102 122.131 18.7399 122.131 18.3175Z" fill="white"/>
<path d="M134.379 17.9715C134.379 18.8346 134.119 19.5418 133.601 20.0965C133.057 20.6668 132.338 20.9513 131.437 20.9513C130.571 20.9513 129.881 20.6787 129.364 20.1311C128.851 19.5846 128.594 18.8953 128.594 18.0644C128.594 17.1953 128.858 16.4822 129.389 15.9286C129.921 15.375 130.635 15.0977 131.536 15.0977C132.402 15.0977 133.1 15.3703 133.626 15.9167C134.127 16.4477 134.379 17.1334 134.379 17.9715ZM133.018 18.012C133.018 17.4941 132.9 17.0501 132.666 16.6798C132.389 16.2322 131.998 16.0084 131.487 16.0084C130.961 16.0084 130.56 16.2322 130.283 16.6798C130.047 17.0501 129.931 17.5013 129.931 18.0346C129.931 18.5525 130.048 18.9965 130.283 19.3668C130.567 19.8144 130.963 20.0382 131.474 20.0382C131.976 20.0382 132.37 19.8108 132.653 19.3549C132.895 18.9775 133.018 18.5299 133.018 18.012Z" fill="white"/>
<path d="M141.609 20.9513H140.326V17.6675C140.326 16.6556 139.939 16.1497 139.161 16.1497C138.779 16.1497 138.472 16.2883 138.234 16.5668C137.996 16.8454 137.878 17.1737 137.878 17.5496V20.9501H136.592V16.8563C136.592 16.3528 136.578 15.8067 136.547 15.2156H137.674L137.734 16.112H137.77C137.921 15.8335 138.144 15.6036 138.435 15.42C138.784 15.2059 139.173 15.0977 139.6 15.0977C140.138 15.0977 140.587 15.2704 140.943 15.617C141.388 16.0414 141.609 16.6751 141.609 17.5167V20.9513Z" fill="white"/>
<path d="M150.288 16.0298H148.834V18.8295C148.834 19.541 149.092 19.8968 149.604 19.8968C149.84 19.8968 150.037 19.8772 150.192 19.8369L150.226 20.8088C149.965 20.9042 149.623 20.9518 149.201 20.9518C148.679 20.9518 148.274 20.7978 147.98 20.4897C147.686 20.1816 147.54 19.6633 147.54 18.9358V16.0298H146.672V15.0701H147.54V14.0138L148.833 13.6348V15.0688H150.286V16.0298H150.288Z" fill="white"/>
<path d="M157.515 20.9514H156.218V17.5296C156.218 16.4507 155.827 15.9106 155.045 15.9106C154.444 15.9106 154.033 16.2234 153.808 16.8491C153.77 16.9806 153.748 17.1414 153.748 17.3304V20.9501H152.453V12.1709H153.748V15.7983H153.772C154.18 15.1382 154.765 14.8087 155.523 14.8087C156.06 14.8087 156.504 14.9901 156.856 15.3539C157.295 15.8072 157.515 16.4813 157.515 17.3725V20.9514Z" fill="white"/>
<path d="M164.749 17.7686C164.749 17.9929 164.733 18.1814 164.702 18.3352H160.906C160.923 18.8911 161.104 19.3146 161.456 19.6081C161.777 19.8705 162.191 20.0018 162.699 20.0018C163.26 20.0018 163.772 19.9135 164.234 19.7357L164.432 20.6042C163.892 20.8356 163.257 20.9513 162.521 20.9513C161.639 20.9513 160.945 20.6948 160.442 20.1819C159.938 19.6689 159.688 18.9806 159.688 18.1169C159.688 17.2688 159.921 16.5626 160.39 15.9995C160.881 15.3983 161.544 15.0977 162.381 15.0977C163.2 15.0977 163.822 15.3983 164.242 15.9995C164.582 16.4767 164.749 17.0672 164.749 17.7686ZM163.542 17.4453C163.551 17.0743 163.468 16.7546 163.296 16.485C163.077 16.1379 162.742 15.9637 162.289 15.9637C161.876 15.9637 161.539 16.1331 161.282 16.4731C161.072 16.7439 160.947 17.0672 160.906 17.4453H163.542Z" fill="white"/>
<path d="M80.1425 43.634H77.219L75.6176 38.6906H70.0514L68.5259 43.634H65.6797L71.1945 26.8047H74.6007L80.1425 43.634ZM75.1349 36.6167L73.6867 32.2222C73.5335 31.7733 73.2464 30.7161 72.8229 29.0519H72.7714C72.6028 29.7676 72.3312 30.8248 71.9578 32.2222L70.5354 36.6167H75.1349Z" fill="white"/>
<path d="M93.8827 37.4454C93.8827 39.5369 93.3306 41.1901 92.2263 42.4037C91.2372 43.484 90.0089 44.0236 88.5427 44.0236C86.9601 44.0236 85.8233 43.4417 85.1309 42.2781H85.0808V48.7563H82.4114V35.4962C82.4114 34.1813 82.3776 32.8318 82.3125 31.4478H84.6601L84.8091 33.397H84.8592C85.7494 31.9284 87.1004 31.1953 88.9133 31.1953C90.3307 31.1953 91.5139 31.7682 92.4604 32.9151C93.4095 34.0634 93.8827 35.5731 93.8827 37.4454ZM91.1633 37.5454C91.1633 36.3484 90.9004 35.3616 90.372 34.585C89.7948 33.7751 89.0198 33.3701 88.0482 33.3701C87.3896 33.3701 86.7911 33.5956 86.2565 34.0403C85.7206 34.4889 85.37 35.0745 85.206 35.7999C85.1234 36.1382 85.082 36.415 85.082 36.6329V38.6834C85.082 39.5779 85.35 40.3327 85.8859 40.9491C86.4217 41.5656 87.1179 41.8731 87.9743 41.8731C88.9797 41.8731 89.7622 41.4758 90.3219 40.6839C90.8828 39.8906 91.1633 38.8448 91.1633 37.5454Z" fill="white"/>
<path d="M107.625 37.4454C107.625 39.5369 107.073 41.1901 105.967 42.4037C104.979 43.484 103.751 44.0236 102.284 44.0236C100.702 44.0236 99.5646 43.4417 98.8734 42.2781H98.8233V48.7563H96.1536V35.4962C96.1536 34.1813 96.1198 32.8318 96.0547 31.4478H98.4025L98.5516 33.397H98.6016C99.4907 31.9284 100.842 31.1953 102.656 31.1953C104.072 31.1953 105.256 31.7682 106.205 32.9151C107.15 34.0634 107.625 35.5731 107.625 37.4454ZM104.905 37.5454C104.905 36.3484 104.641 35.3616 104.113 34.585C103.535 33.7751 102.763 33.3701 101.79 33.3701C101.13 33.3701 100.533 33.5956 99.9966 34.0403C99.4607 34.4889 99.1113 35.0745 98.9472 35.7999C98.8659 36.1382 98.8233 36.415 98.8233 36.6329V38.6834C98.8233 39.5779 99.0912 40.3327 99.6247 40.9491C100.161 41.5643 100.857 41.8731 101.716 41.8731C102.721 41.8731 103.504 41.4758 104.064 40.6839C104.625 39.8906 104.905 38.8448 104.905 37.5454Z" fill="white"/>
<path d="M123.53 39.3294C123.53 40.7804 123.048 41.961 122.081 42.8723C121.018 43.8683 119.538 44.3657 117.636 44.3657C115.88 44.3657 114.472 44.0119 113.406 43.303L114.012 41.0252C115.16 41.7507 116.419 42.1148 117.791 42.1148C118.776 42.1148 119.542 41.8815 120.093 41.4175C120.641 40.9534 120.915 40.3305 120.915 39.5537C120.915 38.8615 120.689 38.2783 120.236 37.8053C119.786 37.3323 119.035 36.8926 117.985 36.4863C115.128 35.3724 113.701 33.7406 113.701 31.5949C113.701 30.1925 114.201 29.0428 115.203 28.148C116.201 27.252 117.533 26.8047 119.198 26.8047C120.683 26.8047 121.916 27.0752 122.901 27.6148L122.248 29.8426C121.328 29.3196 120.288 29.0581 119.124 29.0581C118.205 29.0581 117.486 29.2953 116.971 29.767C116.536 30.1887 116.317 30.7027 116.317 31.3116C116.317 31.9858 116.566 32.5434 117.067 32.9818C117.502 33.3868 118.293 33.8252 119.441 34.2982C120.845 34.8891 121.876 35.58 122.539 36.3722C123.2 37.1618 123.53 38.1501 123.53 39.3294Z" fill="white"/>
<path d="M132.208 34.0337H129.3V39.9098C129.3 41.4044 129.812 42.1511 130.839 42.1511C131.311 42.1511 131.702 42.1095 132.011 42.0262L132.084 44.0682C131.565 44.2662 130.88 44.3659 130.033 44.3659C128.991 44.3659 128.176 44.0417 127.589 43.3947C127.003 42.7464 126.709 41.6592 126.709 40.1318V34.0311H124.977V32.0131H126.709V29.7971L129.3 29V32.0131H132.208V34.0337Z" fill="white"/>
<path d="M146.668 37.3036C146.668 39.1367 146.116 40.6417 145.015 41.8186C143.86 43.0303 142.327 43.6343 140.416 43.6343C138.575 43.6343 137.109 43.054 136.015 41.8932C134.922 40.7324 134.375 39.2672 134.375 37.5012C134.375 35.6532 134.937 34.1395 136.066 32.9626C137.192 31.7844 138.712 31.1953 140.623 31.1953C142.465 31.1953 143.947 31.7757 145.065 32.9377C146.135 34.0649 146.668 35.5202 146.668 37.3036ZM143.775 37.3893C143.775 36.2895 143.528 35.3462 143.027 34.5595C142.442 33.6076 141.607 33.1328 140.524 33.1328C139.403 33.1328 138.551 33.6088 137.967 34.5595C137.466 35.3475 137.218 36.3056 137.218 37.4391C137.218 38.5389 137.466 39.4822 137.967 40.2676C138.57 41.2196 139.412 41.6944 140.499 41.6944C141.563 41.6944 142.399 41.2097 143.002 40.2428C143.516 39.4412 143.775 38.488 143.775 37.3893Z" fill="white"/>
<path d="M154.625 33.8272C154.358 33.7776 154.073 33.7522 153.774 33.7522C152.823 33.7522 152.088 34.1117 151.57 34.8319C151.12 35.467 150.895 36.2697 150.895 37.2389V43.6343H148.193L148.219 35.2841C148.219 33.8792 148.184 32.6001 148.117 31.4468H150.471L150.57 33.7789H150.645C150.93 32.9774 151.38 32.3321 151.996 31.8482C152.598 31.4125 153.249 31.1953 153.95 31.1953C154.2 31.1953 154.425 31.2131 154.625 31.2448V33.8272Z" fill="white"/>
<path d="M166.917 36.8725C166.917 37.3482 166.886 37.7492 166.818 38.0767H158.683C158.715 39.2572 159.108 40.16 159.863 40.7827C160.549 41.3393 161.435 41.6182 162.524 41.6182C163.729 41.6182 164.828 41.4302 165.816 41.0529L166.241 42.8959C165.086 43.389 163.722 43.6343 162.149 43.6343C160.256 43.6343 158.771 43.0889 157.689 41.9993C156.611 40.9097 156.07 39.4465 156.07 37.611C156.07 35.809 156.573 34.3085 157.579 33.1118C158.632 31.8341 160.055 31.1953 161.846 31.1953C163.605 31.1953 164.937 31.8341 165.841 33.1118C166.557 34.1267 166.917 35.3819 166.917 36.8725ZM164.332 36.1839C164.349 35.3969 164.173 34.7169 163.805 34.1429C163.336 33.4044 162.614 33.0358 161.644 33.0358C160.757 33.0358 160.036 33.3957 159.485 34.118C159.034 34.692 158.766 35.3807 158.683 36.1826H164.332V36.1839Z" fill="white"/>
</svg>
