<svg width="22" height="14" viewBox="0 0 22 14" fill="none" xmlns="http://www.w3.org/2000/svg">
<path fill-rule="evenodd" clip-rule="evenodd" d="M0.5 13C0.5 12.5858 0.77653 12.25 1.11765 12.25H20.8824C21.2235 12.25 21.5 12.5858 21.5 13C21.5 13.4142 21.2235 13.75 20.8824 13.75H1.11765C0.77653 13.75 0.5 13.4142 0.5 13Z" fill="white"/>
<path fill-rule="evenodd" clip-rule="evenodd" d="M0.5 7C0.5 6.58579 0.77653 6.25 1.11765 6.25H20.8824C21.2235 6.25 21.5 6.58579 21.5 7C21.5 7.41421 21.2235 7.75 20.8824 7.75H1.11765C0.77653 7.75 0.5 7.41421 0.5 7Z" fill="white"/>
<path fill-rule="evenodd" clip-rule="evenodd" d="M0.5 1C0.5 0.585786 0.77653 0.25 1.11765 0.25H20.8824C21.2235 0.25 21.5 0.585786 21.5 1C21.5 1.41421 21.2235 1.75 20.8824 1.75H1.11765C0.77653 1.75 0.5 1.41421 0.5 1Z" fill="white"/>
</svg>
